ISO-10303-21;
HEADER;
/* Generated by software containing ST-Developer
 * from STEP Tools, Inc. (www.steptools.com) 
 */
/* OPTION: using custom renumber hook */

FILE_DESCRIPTION(
/* description */ ('STEP AP242 Edition 2',
'CAx-IF Rec.Pracs.---Representation and Presentation of Product Manufa
cturing Information (PMI)---4.0---2014-10-13',
'CAx-IF Rec.Pracs.---3D Tessellated Geometry---0.4---2014-09-14','2;1',
'CAx-IF Rec.Pracs.---User Defined Attributes---1.5---2016-08-15'),
/* implementation_level */ '2;1');

FILE_NAME(
/* name */ 'Handrad - Part 1',
/* time_stamp */ '2026-09-16T09:24:39Z',
/* author */ (''),
/* organization */ (''),
/* preprocessor_version */ 'ST-DEVELOPER v20',
/* originating_system */ 'ONSHAPE BY PTC INC, 1.220',
/* authorisation */ '  ');

FILE_SCHEMA (('AP242_MANAGED_MODEL_BASED_3D_ENGINEERING_MIM_LF { 1 0 10303 442 3 1 4 }'));
ENDSEC;

DATA;
#10=SHAPE_REPRESENTATION_RELATIONSHIP('','',#142,#11);
#11=ADVANCED_BREP_SHAPE_REPRESENTATION('',(#140),#250);
#12=TOROIDAL_SURFACE('',#157,29.9462410365339,2.);
#13=PLANE('',#154);
#14=PLANE('',#160);
#15=CYLINDRICAL_SURFACE('',#150,15.);
#16=CYLINDRICAL_SURFACE('',#152,44.);
#17=CYLINDRICAL_SURFACE('',#159,30.);
#18=CYLINDRICAL_SURFACE('',#162,9.);
#19=CYLINDRICAL_SURFACE('',#163,2.5);
#20=B_SPLINE_CURVE_WITH_KNOTS('',3,(#212,#213,#214,#215,#216,#217,#218,
#219,#220,#221,#222),.UNSPECIFIED.,.T.,.F.,(1,1,1,1,1,1,1,1,1,1,1,1,1,1,
1),(-0.0060335457441182,-0.00402236382941213,-0.00201118191470606,8.94056015336375E-18,
0.00201118191470608,0.00402236382941215,0.00603354574411822,0.00804472765882429,
0.0100559095735304,0.0120670914882364,0.0140782734029425,0.0160894553176486,
0.0181006372323546,0.0201118191470607,0.0221230010617668),.UNSPECIFIED.);
#21=ORIENTED_EDGE('',*,*,#43,.F.);
#22=ORIENTED_EDGE('',*,*,#44,.T.);
#23=ORIENTED_EDGE('',*,*,#45,.F.);
#24=ORIENTED_EDGE('',*,*,#46,.T.);
#25=ORIENTED_EDGE('',*,*,#47,.F.);
#26=ORIENTED_EDGE('',*,*,#44,.F.);
#27=ORIENTED_EDGE('',*,*,#48,.T.);
#28=ORIENTED_EDGE('',*,*,#49,.F.);
#29=ORIENTED_EDGE('',*,*,#43,.T.);
#30=ORIENTED_EDGE('',*,*,#50,.T.);
#31=ORIENTED_EDGE('',*,*,#49,.T.);
#32=ORIENTED_EDGE('',*,*,#51,.F.);
#33=ORIENTED_EDGE('',*,*,#51,.T.);
#34=ORIENTED_EDGE('',*,*,#52,.F.);
#35=ORIENTED_EDGE('',*,*,#52,.T.);
#36=ORIENTED_EDGE('',*,*,#46,.F.);
#37=ORIENTED_EDGE('',*,*,#53,.T.);
#38=ORIENTED_EDGE('',*,*,#48,.F.);
#39=ORIENTED_EDGE('',*,*,#53,.F.);
#40=ORIENTED_EDGE('',*,*,#47,.T.);
#41=ORIENTED_EDGE('',*,*,#50,.F.);
#42=ORIENTED_EDGE('',*,*,#45,.T.);
#43=EDGE_CURVE('',#54,#54,#65,.T.);
#44=EDGE_CURVE('',#55,#55,#66,.T.);
#45=EDGE_CURVE('',#56,#56,#20,.T.);
#46=EDGE_CURVE('',#57,#57,#67,.T.);
#47=EDGE_CURVE('',#58,#58,#68,.T.);
#48=EDGE_CURVE('',#59,#59,#69,.T.);
#49=EDGE_CURVE('',#60,#60,#70,.T.);
#50=EDGE_CURVE('',#61,#61,#71,.T.);
#51=EDGE_CURVE('',#62,#62,#72,.T.);
#52=EDGE_CURVE('',#63,#63,#73,.T.);
#53=EDGE_CURVE('',#64,#64,#74,.T.);
#54=VERTEX_POINT('',#209);
#55=VERTEX_POINT('',#211);
#56=VERTEX_POINT('',#223);
#57=VERTEX_POINT('',#226);
#58=VERTEX_POINT('',#228);
#59=VERTEX_POINT('',#231);
#60=VERTEX_POINT('',#234);
#61=VERTEX_POINT('',#237);
#62=VERTEX_POINT('',#239);
#63=VERTEX_POINT('',#242);
#64=VERTEX_POINT('',#246);
#65=CIRCLE('',#145,44.);
#66=CIRCLE('',#146,15.);
#67=CIRCLE('',#148,30.);
#68=CIRCLE('',#149,9.);
#69=CIRCLE('',#151,15.);
#70=CIRCLE('',#153,44.);
#71=CIRCLE('',#155,2.5);
#72=CIRCLE('',#156,31.9159607192059);
#73=CIRCLE('',#158,30.);
#74=CIRCLE('',#161,9.);
#75=EDGE_LOOP('',(#21));
#76=EDGE_LOOP('',(#22));
#77=EDGE_LOOP('',(#23));
#78=EDGE_LOOP('',(#24));
#79=EDGE_LOOP('',(#25));
#80=EDGE_LOOP('',(#26));
#81=EDGE_LOOP('',(#27));
#82=EDGE_LOOP('',(#28));
#83=EDGE_LOOP('',(#29));
#84=EDGE_LOOP('',(#30));
#85=EDGE_LOOP('',(#31));
#86=EDGE_LOOP('',(#32));
#87=EDGE_LOOP('',(#33));
#88=EDGE_LOOP('',(#34));
#89=EDGE_LOOP('',(#35));
#90=EDGE_LOOP('',(#36));
#91=EDGE_LOOP('',(#37));
#92=EDGE_LOOP('',(#38));
#93=EDGE_LOOP('',(#39));
#94=EDGE_LOOP('',(#40));
#95=EDGE_LOOP('',(#41));
#96=EDGE_LOOP('',(#42));
#97=FACE_BOUND('',#75,.T.);
#98=FACE_BOUND('',#76,.T.);
#99=FACE_BOUND('',#77,.T.);
#100=FACE_BOUND('',#78,.T.);
#101=FACE_BOUND('',#79,.T.);
#102=FACE_BOUND('',#80,.T.);
#103=FACE_BOUND('',#81,.T.);
#104=FACE_BOUND('',#82,.T.);
#105=FACE_BOUND('',#83,.T.);
#106=FACE_BOUND('',#84,.T.);
#107=FACE_BOUND('',#85,.T.);
#108=FACE_BOUND('',#86,.T.);
#109=FACE_BOUND('',#87,.T.);
#110=FACE_BOUND('',#88,.T.);
#111=FACE_BOUND('',#89,.T.);
#112=FACE_BOUND('',#90,.T.);
#113=FACE_BOUND('',#91,.T.);
#114=FACE_BOUND('',#92,.T.);
#115=FACE_BOUND('',#93,.T.);
#116=FACE_BOUND('',#94,.T.);
#117=FACE_BOUND('',#95,.T.);
#118=FACE_BOUND('',#96,.T.);
#119=CONICAL_SURFACE('',#144,15.,1.23873685925201);
#120=CONICAL_SURFACE('',#147,30.,1.01245319456791);
#121=ADVANCED_FACE('',(#97,#98,#99),#119,.T.);
#122=ADVANCED_FACE('',(#100,#101),#120,.F.);
#123=ADVANCED_FACE('',(#102,#103),#15,.T.);
#124=ADVANCED_FACE('',(#104,#105),#16,.T.);
#125=ADVANCED_FACE('',(#106,#107,#108),#13,.T.);
#126=ADVANCED_FACE('',(#109,#110),#12,.F.);
#127=ADVANCED_FACE('',(#111,#112),#17,.F.);
#128=ADVANCED_FACE('',(#113,#114),#14,.F.);
#129=ADVANCED_FACE('',(#115,#116),#18,.F.);
#130=ADVANCED_FACE('',(#117,#118),#19,.F.);
#131=CLOSED_SHELL('',(#121,#122,#123,#124,#125,#126,#127,#128,#129,#130));
#132=STYLED_ITEM('',(#133),#140);
#133=PRESENTATION_STYLE_ASSIGNMENT((#134));
#134=SURFACE_STYLE_USAGE(.BOTH.,#135);
#135=SURFACE_SIDE_STYLE('',(#136));
#136=SURFACE_STYLE_FILL_AREA(#137);
#137=FILL_AREA_STYLE('',(#138));
#138=FILL_AREA_STYLE_COLOUR('',#139);
#139=COLOUR_RGB('',0.615686274509804,0.811764705882353,0.929411764705882);
#140=MANIFOLD_SOLID_BREP('Part 1',#131);
#141=SHAPE_DEFINITION_REPRESENTATION(#255,#142);
#142=SHAPE_REPRESENTATION('Part 1',(#143),#250);
#143=AXIS2_PLACEMENT_3D('',#206,#164,#165);
#144=AXIS2_PLACEMENT_3D('',#207,#166,#167);
#145=AXIS2_PLACEMENT_3D('',#208,#168,#169);
#146=AXIS2_PLACEMENT_3D('',#210,#170,#171);
#147=AXIS2_PLACEMENT_3D('',#224,#172,#173);
#148=AXIS2_PLACEMENT_3D('',#225,#174,#175);
#149=AXIS2_PLACEMENT_3D('',#227,#176,#177);
#150=AXIS2_PLACEMENT_3D('',#229,#178,#179);
#151=AXIS2_PLACEMENT_3D('',#230,#180,#181);
#152=AXIS2_PLACEMENT_3D('',#232,#182,#183);
#153=AXIS2_PLACEMENT_3D('',#233,#184,#185);
#154=AXIS2_PLACEMENT_3D('',#235,#186,#187);
#155=AXIS2_PLACEMENT_3D('',#236,#188,#189);
#156=AXIS2_PLACEMENT_3D('',#238,#190,#191);
#157=AXIS2_PLACEMENT_3D('',#240,#192,#193);
#158=AXIS2_PLACEMENT_3D('',#241,#194,#195);
#159=AXIS2_PLACEMENT_3D('',#243,#196,#197);
#160=AXIS2_PLACEMENT_3D('',#244,#198,#199);
#161=AXIS2_PLACEMENT_3D('',#245,#200,#201);
#162=AXIS2_PLACEMENT_3D('',#247,#202,#203);
#163=AXIS2_PLACEMENT_3D('',#248,#204,#205);
#164=DIRECTION('',(0.,0.,1.));
#165=DIRECTION('',(1.,0.,0.));
#166=DIRECTION('',(0.,0.,1.));
#167=DIRECTION('',(1.,0.,0.));
#168=DIRECTION('',(0.,0.,1.));
#169=DIRECTION('',(1.,0.,0.));
#170=DIRECTION('',(0.,0.,1.));
#171=DIRECTION('',(1.,0.,0.));
#172=DIRECTION('',(0.,0.,1.));
#173=DIRECTION('',(1.,0.,0.));
#174=DIRECTION('',(0.,0.,1.));
#175=DIRECTION('',(1.,0.,0.));
#176=DIRECTION('',(0.,0.,1.));
#177=DIRECTION('',(1.,0.,0.));
#178=DIRECTION('',(0.,0.,1.));
#179=DIRECTION('',(1.,0.,0.));
#180=DIRECTION('',(0.,0.,1.));
#181=DIRECTION('',(1.,0.,0.));
#182=DIRECTION('',(0.,0.,1.));
#183=DIRECTION('',(1.,0.,0.));
#184=DIRECTION('',(0.,0.,1.));
#185=DIRECTION('',(1.,0.,0.));
#186=DIRECTION('',(0.,0.,1.));
#187=DIRECTION('',(1.,0.,0.));
#188=DIRECTION('',(0.,0.,-1.));
#189=DIRECTION('',(-1.,0.,0.));
#190=DIRECTION('',(0.,0.,1.));
#191=DIRECTION('',(1.,0.,0.));
#192=DIRECTION('',(0.,0.,1.));
#193=DIRECTION('',(1.,0.,0.));
#194=DIRECTION('',(0.,0.,1.));
#195=DIRECTION('',(1.,0.,0.));
#196=DIRECTION('',(0.,0.,1.));
#197=DIRECTION('',(1.,0.,0.));
#198=DIRECTION('',(0.,0.,1.));
#199=DIRECTION('',(1.,0.,0.));
#200=DIRECTION('',(0.,0.,1.));
#201=DIRECTION('',(1.,0.,0.));
#202=DIRECTION('',(0.,0.,-1.));
#203=DIRECTION('',(-1.,0.,0.));
#204=DIRECTION('',(0.,0.,-1.));
#205=DIRECTION('',(-1.,0.,0.));
#206=CARTESIAN_POINT('',(0.,0.,0.));
#207=CARTESIAN_POINT('',(0.,0.,16.));
#208=CARTESIAN_POINT('',(0.,0.,26.));
#209=CARTESIAN_POINT('',(44.,0.,26.));
#210=CARTESIAN_POINT('',(0.,0.,16.));
#211=CARTESIAN_POINT('',(15.,0.,16.));
#212=CARTESIAN_POINT('',(-37.8496005619649,-2.74520556406754,23.91423376357));
#213=CARTESIAN_POINT('',(-39.8068740548754,-2.10026014281189,24.5701663292178));
#214=CARTESIAN_POINT('',(-40.7871688570672,-0.154031003429995,24.8852860580267));
#215=CARTESIAN_POINT('',(-40.0222242154416,1.90011518496136,24.6401186792146));
#216=CARTESIAN_POINT('',(-38.1282208271936,2.74698370624075,24.0099494950984));
#217=CARTESIAN_POINT('',(-36.1943095103588,2.09420451967502,23.3268337951472));
#218=CARTESIAN_POINT('',(-35.2128246794449,0.161218372939828,22.9620329300188));
#219=CARTESIAN_POINT('',(-35.9780654907001,-1.89667008163582,23.2475653037077));
#220=CARTESIAN_POINT('',(-37.8496005619649,-2.74520556406754,23.91423376357));
#221=CARTESIAN_POINT('',(-39.8068740548754,-2.10026014281189,24.5701663292178));
#222=CARTESIAN_POINT('',(-40.7871688570672,-0.154031003429995,24.8852860580267));
#223=CARTESIAN_POINT('',(-39.644044273089,-1.88337952312419,24.5133641897446));
#224=CARTESIAN_POINT('',(0.,0.,36.3474276582456));
#225=CARTESIAN_POINT('',(0.,0.,36.3474276582456));
#226=CARTESIAN_POINT('',(30.,0.,36.3474276582456));
#227=CARTESIAN_POINT('',(0.,0.,23.2299078083055));
#228=CARTESIAN_POINT('',(9.,0.,23.2299078083055));
#229=CARTESIAN_POINT('',(0.,0.,17.6081135869026));
#230=CARTESIAN_POINT('',(0.,0.,0.));
#231=CARTESIAN_POINT('',(15.,0.,0.));
#232=CARTESIAN_POINT('',(0.,0.,17.6081135869026));
#233=CARTESIAN_POINT('',(0.,0.,40.));
#234=CARTESIAN_POINT('',(44.,0.,40.));
#235=CARTESIAN_POINT('',(37.9579803596029,0.,40.));
#236=CARTESIAN_POINT('',(-38.,0.,40.));
#237=CARTESIAN_POINT('',(-40.5,0.,40.));
#238=CARTESIAN_POINT('',(0.,0.,40.));
#239=CARTESIAN_POINT('',(31.9159607192059,0.,40.));
#240=CARTESIAN_POINT('',(0.,0.,40.3467050211563));
#241=CARTESIAN_POINT('',(0.,0.,38.3474276582456));
#242=CARTESIAN_POINT('',(30.,0.,38.3474276582456));
#243=CARTESIAN_POINT('',(0.,0.,17.6081135869026));
#244=CARTESIAN_POINT('',(7.5,0.,0.));
#245=CARTESIAN_POINT('',(0.,5.51091059616309E-16,0.));
#246=CARTESIAN_POINT('',(9.,5.51091059616309E-16,0.));
#247=CARTESIAN_POINT('',(0.,5.51091059616309E-16,50.));
#248=CARTESIAN_POINT('',(-38.,0.,40.));
#249=MECHANICAL_DESIGN_GEOMETRIC_PRESENTATION_REPRESENTATION('',(#132),
#250);
#250=(
GEOMETRIC_REPRESENTATION_CONTEXT(3)
GLOBAL_UNCERTAINTY_ASSIGNED_CONTEXT((#251))
GLOBAL_UNIT_ASSIGNED_CONTEXT((#254,#253,#252))
REPRESENTATION_CONTEXT('Part 1','TOP_LEVEL_ASSEMBLY_PART')
);
#251=UNCERTAINTY_MEASURE_WITH_UNIT(LENGTH_MEASURE(1.E-5),#254,
'DISTANCE_ACCURACY_VALUE','Maximum Tolerance applied to model');
#252=(
NAMED_UNIT(*)
SI_UNIT($,.STERADIAN.)
SOLID_ANGLE_UNIT()
);
#253=(
NAMED_UNIT(*)
PLANE_ANGLE_UNIT()
SI_UNIT($,.RADIAN.)
);
#254=(
LENGTH_UNIT()
NAMED_UNIT(*)
SI_UNIT(.MILLI.,.METRE.)
);
#255=PRODUCT_DEFINITION_SHAPE('','',#256);
#256=PRODUCT_DEFINITION('','',#258,#257);
#257=PRODUCT_DEFINITION_CONTEXT('',#264,'design');
#258=PRODUCT_DEFINITION_FORMATION_WITH_SPECIFIED_SOURCE('','',#260,
 .NOT_KNOWN.);
#259=PRODUCT_RELATED_PRODUCT_CATEGORY('','',(#260));
#260=PRODUCT('Part 1','Part 1','Part 1',(#262));
#261=PRODUCT_CATEGORY('','');
#262=PRODUCT_CONTEXT('',#264,'mechanical');
#263=APPLICATION_PROTOCOL_DEFINITION('international standard',
'ap242_managed_model_based_3d_engineering',2020,#264);
#264=APPLICATION_CONTEXT('managed model based 3d engineering');
ENDSEC;
END-ISO-10303-21;
