<?xml version="1.0" standalone="no"?>

<!DOCTYPE svg PUBLIC "-//W3C//DTD SVG 20010904//EN"

 "http://www.w3.org/TR/2001/REC-SVG-20010904/DTD/svg10.dtd">

<svg version="1.0" xmlns="http://www.w3.org/2000/svg"

 width="612.000000pt" height="536.000000pt" viewBox="0 0 612.000000 536.000000"

 preserveAspectRatio="xMidYMid meet">

<path fill="#fdfdfc" stroke="none" d="
M0 268

L0 0

L306 0

L612 0

L612 268

L612 536

L306 536

L0 536

L0 268

Z

"/>

<path fill="#acada7" stroke="none" d="
M367 472

C362 470 355 468 352 467

C331 458 329 458 313 458

C300 458 295 459 280 463

C255 469 224 472 207 469

C191 466 185 464 169 456

C151 448 140 440 126 427

C99 399 85 362 85 315

C85 306 85 296 86 293

C86 290 87 284 88 280

C92 251 107 220 127 200

C141 186 163 172 180 166

C200 158 216 154 233 152

C236 152 240 151 240 150

C242 149 245 139 245 136

C245 133 249 120 253 112

C260 97 273 81 283 74

C288 71 290 70 296 73

C312 78 327 89 337 104

C339 107 342 111 342 111

C344 112 377 112 380 111

C381 111 385 108 387 106

C393 100 409 86 417 79

C426 70 426 70 433 77

C448 92 463 114 469 133

C475 149 475 168 470 183

L468 190

L473 201

C481 217 489 242 489 250

C489 252 489 254 490 256

C491 259 494 288 494 303

C494 310 493 316 492 319

C491 323 491 323 488 322

C486 321 481 319 477 316

C466 310 457 305 453 303

C449 302 448 302 447 304

C446 305 445 306 446 308

C447 309 447 311 447 313

C447 314 448 317 448 319

C450 324 452 338 450 338

C450 338 449 336 449 335

C449 332 449 331 447 331

C446 331 446 331 446 323

C446 316 446 315 444 316

C442 316 442 316 442 308

L443 300

L449 299

C454 299 456 299 457 300

C458 301 459 302 461 302

C462 302 463 303 464 304

C465 305 466 306 467 306

C468 306 469 307 470 308

C471 308 472 309 473 309

C473 309 474 310 474 311

C474 311 475 312 476 312

C478 312 479 313 480 314

C481 314 482 315 482 315

C483 315 484 316 485 317

C486 317 487 318 488 318

C489 318 490 315 490 294

C490 277 490 269 489 269

C488 269 488 264 487 259

C487 254 486 250 485 248

C485 247 484 244 484 241

C484 236 484 235 483 234

C482 234 481 232 481 230

C481 228 480 225 480 224

C479 224 478 221 478 219

C478 217 477 216 477 215

C476 215 475 214 475 213

C475 211 470 201 469 200

C468 200 468 199 468 198

C468 198 467 196 467 195

C466 195 465 192 465 190

C465 188 466 186 467 185

C467 184 468 183 468 181

C468 180 469 178 469 176

C471 174 472 145 470 145

C469 145 469 142 468 140

C468 138 467 135 466 134

C466 132 465 130 465 129

C465 127 464 126 464 126

C463 125 462 124 462 123

C462 121 461 120 461 119

C460 119 459 118 459 116

C458 114 457 113 456 113

C456 112 455 111 455 111

C455 110 454 109 454 108

C453 107 452 106 452 105

C452 104 451 103 451 103

C450 103 449 102 449 102

C449 101 448 100 448 100

C447 99 446 98 446 98

C446 97 444 95 443 93

C441 91 439 89 439 89

C439 87 429 78 427 78

C422 77 420 78 420 80

C420 80 419 81 419 81

C418 81 417 82 417 83

C417 83 416 84 415 84

C414 84 413 85 413 86

C413 87 412 88 412 88

C411 88 410 89 410 90

C410 90 409 91 409 91

C408 91 407 92 407 93

C407 93 406 94 406 94

C405 94 404 95 404 96

C404 96 403 97 403 97

C402 97 401 98 401 99

C401 99 400 100 399 100

C398 100 397 101 397 102

C397 103 397 104 396 104

C395 104 393 106 391 109

C388 111 386 113 385 113

C385 113 384 114 384 115

C383 117 341 117 340 115

C340 114 339 113 338 113

C338 113 337 112 337 111

C337 111 336 109 335 107

C330 101 327 97 324 95

C322 93 319 90 317 88

C315 86 312 84 311 84

C311 84 310 84 310 83

C309 81 301 78 298 78

C297 78 296 77 295 77

C295 74 286 74 286 77

C285 77 284 78 284 78

C283 78 282 79 282 80

C282 80 281 81 281 81

C280 81 279 82 279 83

C279 83 278 84 278 84

C277 84 276 85 276 86

C276 86 275 87 274 88

C273 88 272 89 272 90

C272 90 271 91 271 91

C270 91 269 92 269 93

C269 93 268 94 268 95

C267 95 266 96 266 97

C266 98 265 99 265 100

C264 100 263 101 263 102

C263 103 262 104 262 104

C261 105 260 106 260 107

C260 109 259 110 258 110

C256 110 256 111 256 113

C256 115 255 116 255 117

C253 117 253 119 253 122

C253 125 253 126 252 126

C250 126 250 127 250 131

C250 134 250 136 249 137

C247 137 247 140 247 146

L247 155

L238 155

C231 155 228 155 228 157

C227 158 225 158 219 158

C213 158 211 158 211 159

C211 160 210 161 206 161

C202 161 200 162 199 163

C199 163 197 164 194 165

C192 165 190 166 189 167

C189 167 187 168 185 168

C183 168 181 169 180 170

C179 170 177 171 176 171

C174 171 173 172 173 173

C173 174 172 174 170 174

C168 174 167 175 167 176

C167 177 166 177 164 177

C161 177 160 178 160 179

C160 180 158 181 155 183

C153 184 151 185 151 186

C150 186 149 187 149 187

C148 187 147 188 147 189

C146 189 145 190 144 190

C142 190 141 191 141 192

C141 192 140 193 140 193

C139 193 138 193 138 194

C138 196 134 200 132 200

C132 200 131 201 131 202

C131 202 130 203 130 203

C129 203 128 204 128 205

C128 205 127 206 127 206

C126 206 125 207 125 208

C125 208 124 209 124 209

C123 209 122 210 122 210

C122 211 121 212 121 213

C120 213 119 215 118 216

C118 218 117 219 116 219

C115 219 115 220 115 221

C115 221 114 222 114 222

C113 222 112 223 112 225

C112 226 111 227 111 228

C110 228 109 229 109 230

C109 231 108 232 108 232

C107 232 106 233 106 235

C106 237 106 238 105 238

C103 238 103 239 103 241

C103 243 102 245 101 247

C100 248 99 250 99 251

C99 253 98 254 98 254

C96 254 96 255 96 259

C96 262 95 264 95 265

C93 266 93 268 93 273

C93 279 93 280 92 280

C90 280 90 282 90 294

C90 305 90 308 89 309

C86 311 86 321 89 322

C90 322 90 325 90 337

C90 349 90 351 92 351

C93 351 93 352 93 357

C93 361 93 363 95 363

C96 364 96 365 96 368

C96 371 96 373 98 373

C99 374 99 375 99 378

C99 382 99 383 101 383

C103 383 103 384 103 386

C103 388 104 389 105 389

C105 389 106 390 106 392

C106 394 107 395 108 395

C108 396 109 397 109 398

C109 400 110 401 111 401

C111 402 112 403 112 403

C112 404 113 405 114 405

C114 405 115 406 115 407

C115 408 116 410 117 411

C118 411 119 413 119 414

C119 414 120 415 121 415

C121 415 122 416 122 417

C122 417 123 418 124 418

C124 418 125 419 125 420

C125 420 126 421 127 421

C127 421 128 422 128 423

C128 423 129 424 130 424

C130 424 131 424 131 425

C131 426 136 431 137 431

C138 431 138 432 138 433

C138 433 139 434 140 434

C140 434 141 435 141 436

C141 436 142 437 143 437

C144 437 145 438 146 439

C147 439 148 440 149 440

C150 440 151 441 151 442

C151 442 152 443 152 443

C153 443 155 444 156 445

C156 446 158 447 159 447

C159 447 160 448 160 449

C160 450 161 450 164 450

C166 450 167 450 167 452

C167 453 168 453 170 453

C172 453 173 454 173 455

C173 456 174 456 178 456

C182 456 183 456 183 458

C183 459 184 459 188 459

C192 459 193 459 193 461

C193 463 194 463 200 463

C207 463 207 463 207 464

C207 466 208 466 226 466

C245 466 246 466 246 464

C246 462 247 462 254 462

C260 462 262 462 263 461

C264 459 266 459 270 459

C274 459 276 458 277 458

C278 457 282 456 285 456

C289 455 293 454 294 454

C295 452 315 451 324 452

C329 453 331 454 331 455

C331 456 332 456 336 456

C340 456 341 456 341 458

C341 459 342 459 345 459

C348 459 349 459 349 461

C350 463 350 463 353 463

C356 462 356 462 356 464

C356 466 357 466 361 466

C364 466 365 466 365 467

C365 469 367 469 373 469

C387 470 394 469 394 467

C394 467 395 466 396 466

C397 466 398 465 398 464

C398 462 399 462 401 462

C403 462 405 461 406 461

C407 459 410 459 419 459

C428 459 430 459 430 461

C431 462 433 462 438 462

C444 462 445 462 445 464

C445 466 446 466 453 466

C460 466 461 466 461 464

C461 462 462 462 465 462

C468 462 470 461 471 461

C472 460 473 459 474 459

C475 459 477 458 478 457

C480 456 481 455 482 455

C484 455 505 435 510 427

C512 425 514 423 514 423

C515 423 515 422 515 422

C515 421 516 420 517 419

C518 418 519 416 519 416

C519 415 520 414 521 414

C521 413 522 412 522 412

C522 411 522 410 523 410

C523 410 524 409 525 407

C525 405 526 404 527 404

C528 404 528 403 528 402

C528 401 529 400 529 399

C530 398 532 395 534 390

C535 389 536 387 537 387

C538 386 538 385 538 384

C538 382 539 381 540 381

C540 380 541 379 541 378

C541 376 542 375 543 375

C543 374 544 373 544 372

C544 371 545 369 546 367

C547 366 548 364 548 363

C548 363 549 362 550 362

C551 362 551 361 551 359

C551 356 552 355 553 354

C554 353 555 352 555 351

C555 351 554 350 553 350

C552 350 551 351 551 352

C551 352 550 354 548 354

C546 355 545 356 545 356

C545 357 544 357 543 357

C542 357 541 358 540 359

C539 359 538 360 537 360

C536 360 535 361 534 362

C533 362 532 363 531 363

C529 363 528 364 527 365

C526 365 524 366 522 366

C520 366 519 367 519 368

C518 370 517 370 513 370

C508 370 507 370 506 372

C506 373 504 373 496 373

C489 373 487 373 487 372

C487 370 486 370 482 370

C478 370 477 370 478 368

C478 366 478 366 475 366

C473 366 472 365 471 365

C471 364 470 363 470 363

C469 363 468 362 468 362

C467 361 466 360 465 360

C463 360 462 359 462 359

C462 357 461 357 459 357

C456 357 455 357 455 356

C455 354 454 354 451 354

C448 354 447 354 446 352

C446 350 445 350 442 350

C440 350 439 349 438 348

C438 347 437 347 433 347

L429 348

L429 339

C429 331 429 331 431 331

C433 331 434 332 434 333

C435 334 436 334 440 334

C443 334 444 334 445 336

C445 337 446 338 447 338

C448 339 446 339 443 339

C438 339 436 339 436 340

C434 342 436 345 440 346

C448 348 455 351 470 359

L487 368

L497 368

C510 368 523 364 545 351

C554 346 558 345 558 349

C558 352 555 360 551 370

C536 404 520 428 503 445

C482 466 464 472 440 467

C435 467 429 465 426 465

C418 463 412 464 400 469

C387 475 379 475 367 472

Z

M374 445

C373 444 372 443 371 443

C370 443 367 441 364 440

C361 438 358 436 358 436

C358 436 357 435 356 435

C355 434 354 433 353 433

C351 433 349 432 348 431

C345 429 311 429 307 431

C305 432 302 433 300 433

C298 433 296 434 295 435

C293 436 292 436 290 435

C288 434 288 432 290 432

C291 432 292 431 292 431

C293 430 295 428 297 427

C302 423 318 408 318 406

C318 406 319 404 321 403

C323 400 324 400 331 400

C335 400 338 400 338 401

C339 401 341 402 343 402

C345 403 348 403 349 404

C350 404 353 406 356 408

C359 409 362 411 362 411

C362 412 363 412 364 412

C365 412 366 413 367 414

C368 414 369 415 369 415

C370 415 372 416 373 417

C375 418 376 419 377 419

C378 419 379 420 380 421

C381 421 383 422 386 422

C390 422 392 421 407 413

C411 411 429 411 432 413

C433 414 434 415 435 415

C436 415 439 416 441 417

C443 418 445 419 446 419

C447 419 448 420 449 421

C451 421 453 422 454 422

C455 422 459 423 461 424

C466 425 475 425 485 423

C488 423 488 423 488 425

C488 426 486 429 484 431

C480 435 469 443 467 443

C466 443 464 444 462 444

C461 445 458 446 456 446

C453 446 450 445 449 444

C447 444 445 443 445 443

C444 443 441 441 438 440

C432 436 432 436 421 436

C413 436 410 436 409 438

C408 438 407 439 406 439

C405 439 397 443 395 445

C393 447 377 446 374 445

Z

M217 442

C215 441 211 440 208 440

C204 439 201 438 199 437

C198 437 196 436 195 436

C193 436 192 435 191 435

C190 434 189 433 188 433

C187 433 186 432 185 432

C184 431 182 430 180 429

C177 427 175 426 175 426

C174 425 171 423 169 422

C162 416 145 399 145 396

C145 396 144 395 144 395

C143 394 142 394 142 393

C142 392 141 391 141 390

C139 388 132 375 132 374

C132 373 131 372 131 371

C130 370 129 369 129 368

C129 367 128 365 128 363

C125 358 121 341 120 326

C118 308 122 286 129 267

C129 265 131 262 131 262

C131 261 132 259 132 258

C133 256 133 255 134 255

C134 255 135 254 136 252

C136 250 136 249 137 249

C137 249 138 248 139 246

C140 243 142 240 144 239

C144 238 145 237 145 237

C145 233 169 210 172 210

C173 210 173 210 173 209

C173 208 174 208 175 207

C176 206 179 205 181 204

C182 203 184 202 185 201

C186 201 188 200 191 199

C193 198 195 197 196 197

C196 197 198 196 200 196

C201 195 204 194 205 194

C206 194 209 193 212 193

C214 192 220 191 227 191

C238 191 238 191 242 194

C247 198 247 200 240 207

C228 217 223 223 224 224

C224 224 227 226 230 228

C234 230 238 232 239 233

L241 235

L236 245

C231 256 230 260 233 261

C234 261 234 263 234 266

L234 271

L238 271

C241 271 242 272 243 273

C243 273 244 274 244 274

C246 274 253 284 253 287

C253 288 253 289 255 288

C256 288 258 289 259 290

C262 294 270 302 274 306

C276 309 279 313 281 314

C282 316 287 321 291 326

C295 331 301 337 304 341

C309 346 310 347 310 350

C310 352 309 354 309 355

C308 356 307 357 307 358

C307 359 306 361 305 363

C303 367 304 368 308 366

C311 365 312 366 311 368

C310 369 310 371 310 372

C310 373 309 375 309 377

C308 378 307 380 307 381

L307 384

L309 382

C311 381 312 379 312 378

C312 378 313 377 314 377

C314 376 315 375 315 375

C315 374 316 373 316 372

C317 371 318 370 318 368

C319 366 320 365 322 364

C324 363 324 363 327 365

C330 369 330 372 327 377

C325 380 324 382 324 383

C322 386 322 387 321 389

C317 394 315 397 314 397

C314 398 313 399 313 399

C313 400 312 401 311 402

C310 403 307 406 304 409

C296 418 281 430 278 430

C277 430 276 431 275 432

C274 432 273 433 272 433

C271 433 270 434 269 435

C268 435 267 436 265 436

C264 436 262 437 261 437

C259 438 256 439 253 440

C250 440 245 441 243 442

C238 443 222 443 217 442

Z

M239 430

C239 429 242 429 245 428

C248 428 251 427 250 427

C250 426 238 427 236 428

C236 429 231 429 226 430

L217 431

L227 431

C233 431 238 431 239 430

Z

M305 386

C304 385 304 386 304 387

C304 388 304 389 305 388

C305 388 305 386 305 386

Z

M213 362

C213 361 214 361 215 361

C218 361 222 356 222 351

C222 346 222 345 220 345

C219 345 217 346 216 346

C212 349 205 348 199 345

C196 344 194 342 193 342

C192 340 191 342 191 345

C191 347 192 348 192 349

C193 349 194 350 194 352

C195 355 199 360 203 362

C206 363 212 363 213 362

Z

M237 348

C240 347 244 341 244 339

C244 338 245 336 246 335

C246 333 247 329 247 325

C247 320 247 319 246 318

C243 316 238 315 235 315

C234 316 234 316 235 317

C237 319 237 319 236 320

C235 321 234 323 234 324

C234 325 233 327 233 329

C232 330 231 333 231 334

C231 335 231 337 230 338

C229 338 229 341 228 343

C228 348 228 348 231 348

C232 349 234 349 234 349

C234 349 235 349 237 348

Z

M187 343

C188 339 188 337 187 337

C186 336 185 335 185 333

C185 329 182 322 180 322

C180 322 179 321 179 320

C179 318 177 316 175 316

C174 316 173 317 172 320

C172 323 173 333 174 334

C174 335 175 337 176 338

C177 342 182 348 184 348

C186 348 187 346 187 343

Z

M216 326

C218 325 219 323 219 322

C219 322 220 320 221 318

C222 315 222 312 220 306

C218 300 215 298 209 298

C206 298 205 298 202 302

C198 306 198 307 198 313

C198 320 199 322 203 327

C206 330 213 330 216 326

Z

M167 307

C167 306 166 305 166 305

C165 305 164 303 164 300

C163 295 163 296 163 302

C163 309 163 310 165 309

C166 309 167 308 167 307

Z

M256 308

C258 306 257 300 255 298

C253 296 253 296 253 299

C253 301 252 302 252 302

C250 302 250 303 250 306

C250 308 250 309 252 309

C254 309 255 308 256 308

Z

M183 301

C183 298 183 296 184 295

C184 295 185 296 185 297

C186 298 186 297 186 295

C186 293 186 292 188 292

C189 293 189 292 189 291

C189 290 189 289 188 289

C187 289 187 288 187 288

C187 286 184 285 179 285

C176 286 176 286 175 291

C175 293 175 298 175 301

C176 306 176 306 179 305

C181 305 182 305 182 306

C182 307 182 307 183 307

C183 307 183 304 183 301

Z

M241 306

C241 306 242 304 243 303

C244 302 244 300 244 296

C244 288 241 283 236 283

C233 283 229 286 231 288

C233 290 232 292 230 292

C229 292 228 291 228 291

C228 290 227 289 227 289

C226 289 225 288 225 288

C225 287 224 286 223 286

C221 286 221 286 222 287

C223 287 224 288 224 289

C224 289 225 290 226 290

C226 290 227 291 227 291

C227 292 230 295 231 295

C232 295 232 294 232 293

C232 291 234 293 235 295

C235 298 235 298 233 298

C232 297 231 298 231 298

C231 300 234 301 236 301

C236 301 237 302 238 302

C238 303 238 305 238 306

C239 307 241 308 241 306

Z

M209 283

L218 283

L220 280

C222 278 223 277 224 277

C224 277 225 276 226 276

C227 275 228 274 229 274

C231 274 231 273 228 271

C224 267 221 266 213 265

C205 265 197 266 194 269

C191 272 190 276 191 278

C192 279 193 280 194 280

C194 280 195 281 195 283

C195 286 195 286 197 284

C199 283 202 283 209 283

Z

M180 270

C180 268 179 267 179 268

C179 269 178 270 177 270

C177 270 176 271 176 271

C176 272 175 273 175 273

C174 274 175 274 177 274

C181 274 181 274 180 270

Z

M469 410

C468 410 465 409 463 408

C462 408 460 407 459 407

C458 407 455 406 453 405

C450 403 447 402 446 401

C444 400 443 399 443 399

C443 398 442 398 441 398

C440 398 438 397 437 396

C434 395 418 392 415 392

C413 393 409 394 406 394

C403 395 399 396 398 396

C396 397 394 398 393 398

C392 399 390 400 388 401

C386 402 384 403 383 403

C382 402 382 398 383 398

C383 397 386 393 389 389

C393 381 400 374 403 374

C404 374 406 373 407 372

C410 371 413 371 423 371

C434 372 440 373 447 376

C448 376 450 377 451 377

C452 378 453 378 454 379

C455 379 456 380 457 380

C458 381 460 382 462 383

C463 384 466 385 467 386

C468 387 471 388 473 389

C477 391 502 391 505 389

C507 388 509 387 509 387

C510 387 512 386 513 385

C517 384 518 384 518 388

C518 391 506 403 499 406

C497 407 494 409 493 409

C490 410 473 411 469 410

Z

M366 392

C363 389 358 383 355 380

C352 376 348 371 347 370

C345 369 340 362 334 356

C328 349 323 343 323 342

C321 341 312 330 310 327

C308 326 306 323 305 322

C301 318 298 315 294 309

C292 306 291 305 292 303

C294 300 298 298 301 300

C302 300 316 314 332 330

C348 347 361 360 362 360

C363 360 367 351 367 349

C367 348 367 348 368 348

C369 348 369 347 369 347

C369 346 370 344 371 341

C377 328 380 323 381 323

C382 323 396 340 399 346

C400 347 399 350 395 358

C388 372 387 372 386 375

C385 376 384 378 384 379

C383 381 382 382 382 382

C381 382 381 383 381 383

C381 387 374 398 372 398

C372 398 369 395 366 392

Z

M401 338

C391 329 391 323 400 328

C402 329 404 329 404 328

C404 328 404 323 404 317

C403 311 403 306 403 305

C404 304 410 304 411 305

C411 306 412 306 413 306

C414 306 415 301 413 299

C412 299 412 295 411 291

C411 283 411 283 414 281

C418 278 424 271 427 264

C428 262 429 262 432 262

C437 262 445 265 447 267

C447 268 448 268 449 268

C450 268 450 267 450 263

C450 256 447 239 444 234

C444 232 443 230 443 229

C443 228 442 227 441 226

C441 224 440 223 440 222

C440 221 439 220 439 219

C438 218 437 217 436 215

C436 213 436 212 435 212

C435 212 434 211 433 209

C431 205 428 201 420 192

C415 186 413 185 407 184

C402 184 401 183 401 181

C401 179 408 163 410 161

C411 161 411 160 411 159

C411 158 412 157 413 156

C413 155 414 154 414 153

C414 152 415 150 416 150

C416 149 417 148 417 148

C417 146 422 136 424 135

C426 132 429 133 429 136

C429 137 430 138 431 139

C431 140 432 141 432 142

C432 143 433 144 433 146

C435 148 435 151 434 155

C433 156 432 159 431 161

C430 163 428 166 428 168

C425 174 424 177 424 178

C424 178 425 180 427 182

L430 186

L431 184

C432 182 433 180 433 178

C434 176 435 174 435 173

C437 171 438 157 438 149

C437 145 436 140 435 137

C432 132 426 125 423 125

C422 125 418 128 415 131

C408 139 407 139 406 142

C405 143 405 145 404 146

C404 147 403 148 403 149

C402 150 402 151 401 152

C400 154 398 163 397 170

C396 179 395 181 392 177

C392 176 389 172 387 169

C386 165 383 161 383 160

C382 159 381 157 380 156

C380 155 379 154 379 154

C379 152 376 153 372 155

C368 157 368 157 367 156

C366 155 365 154 364 154

C364 154 363 154 363 153

C363 151 360 152 356 155

C352 158 349 158 346 154

C341 149 340 149 330 160

C321 170 318 171 316 169

C316 168 315 163 315 158

C314 146 312 139 308 130

C304 123 299 117 297 117

C293 117 283 130 280 140

C278 145 278 147 278 161

C278 181 279 180 275 180

C273 180 272 179 271 177

C269 172 270 147 272 142

C272 140 273 138 273 137

C273 135 274 134 274 132

C275 131 276 130 276 129

C276 125 292 103 296 101

C301 99 306 102 313 111

C316 114 318 117 318 117

C319 117 321 122 324 126

C324 127 325 129 326 130

C327 132 328 133 328 133

C329 133 329 134 329 134

C329 135 330 136 330 138

C332 139 332 139 336 137

C340 135 342 135 346 140

C347 142 349 143 349 143

C350 143 352 141 354 140

C357 138 359 136 360 136

C361 136 364 138 366 140

C367 141 369 143 369 143

C370 143 371 142 373 140

C378 136 379 136 382 139

C384 141 385 142 386 142

C386 142 390 138 395 133

C400 128 407 121 412 116

C416 111 421 107 422 107

C424 107 429 111 429 112

C429 113 430 114 431 116

C434 119 441 129 441 132

C442 133 443 136 443 138

C446 144 446 175 443 178

C443 179 442 181 442 183

C441 185 440 188 438 190

L435 193

L438 197

C441 202 447 211 448 214

C448 216 451 223 453 227

C454 229 455 231 455 232

C455 232 456 234 456 236

C457 237 458 239 458 240

C458 241 459 243 459 245

C460 246 461 249 461 250

C461 252 462 254 463 256

C463 258 464 261 464 263

C464 265 465 269 466 272

C467 277 467 288 465 289

C465 289 464 289 463 288

C460 285 448 279 446 279

C445 279 444 278 442 278

C441 277 439 276 437 276

C434 276 433 277 429 282

C425 286 424 289 424 291

C424 294 426 305 428 308

C428 309 428 312 428 315

C428 319 428 320 426 320

C424 320 422 320 422 319

C421 318 420 318 418 318

C416 318 416 318 416 329

C416 335 416 341 416 342

C416 343 414 343 411 343

C407 343 406 343 401 338

Z

M361 316

C359 314 359 314 358 315

C356 317 351 317 351 316

C350 315 349 314 349 314

C348 314 347 314 347 313

C347 313 346 312 344 311

C335 307 334 306 334 294

L334 286

L338 283

C342 281 343 281 352 281

C360 281 362 281 364 282

C365 283 366 284 367 284

C367 284 369 286 371 288

C374 291 374 292 374 296

C374 299 373 302 372 304

C371 306 371 306 372 306

C374 306 379 301 382 296

C385 292 388 282 388 277

C388 273 389 271 390 271

C392 271 397 277 397 279

C397 279 398 280 399 281

C399 282 400 284 400 285

C400 287 400 288 401 289

C403 289 402 297 400 302

C397 312 385 318 370 318

C363 318 362 318 361 316

Z

M364 312

C364 311 364 311 363 311

C362 311 362 311 362 312

C362 313 362 313 362 313

C363 313 363 313 364 312

Z

M369 308

C368 308 366 308 366 309

C365 309 366 310 368 309

C370 309 370 308 369 308

Z

M355 293

L362 293

L360 291

C356 288 347 288 345 291

C343 292 343 293 344 294

C345 295 346 295 347 294

C348 294 352 294 355 293

Z

M283 298

C281 298 278 294 274 291

C270 288 265 283 263 280

C258 276 257 272 259 271

C260 270 261 264 260 262

C259 261 258 260 258 260

C257 260 256 259 255 259

C254 258 252 257 250 256

C243 252 243 252 248 244

C256 231 256 232 251 230

C247 230 245 225 247 223

C248 223 253 219 258 214

L266 207

L262 205

C259 203 257 202 257 201

C257 199 261 194 263 194

C263 194 264 194 264 193

C264 193 266 191 268 189

C271 188 274 185 275 184

C276 182 280 179 283 177

C288 173 291 170 288 170

C287 170 280 159 280 158

C280 157 281 156 282 155

C282 153 283 152 283 151

C283 150 284 149 285 148

C285 147 286 146 286 145

C286 144 287 143 288 142

C288 141 289 140 289 139

C289 138 290 137 291 136

C291 135 292 134 292 133

C292 131 296 126 298 126

C299 126 300 127 301 128

C308 137 308 135 306 142

C305 144 304 150 304 154

L304 162

L309 168

C314 174 314 174 313 176

C311 176 309 177 306 177

C303 177 301 178 299 180

C293 186 282 195 281 196

C279 196 280 200 281 200

C282 200 284 201 285 202

C287 203 287 203 285 206

C285 208 284 209 283 209

C283 209 279 212 275 216

C268 223 268 223 270 223

C274 224 278 227 278 229

C278 229 277 232 275 234

C274 237 271 241 270 243

L267 248

L271 250

C273 251 276 252 276 252

C278 252 281 255 281 257

C281 258 280 260 280 262

C279 263 278 266 278 268

C277 272 277 272 285 281

C293 290 293 291 288 296

C285 299 285 299 283 298

Z

M324 294

C322 291 319 288 318 287

C316 284 316 284 321 274

C324 269 326 264 326 262

C326 260 321 256 319 256

C318 256 317 255 316 255

C315 254 314 253 314 253

C312 253 299 246 295 244

L292 242

L295 239

C299 234 299 232 294 229

C290 225 290 222 294 221

C298 220 298 216 294 210

L292 206

L294 204

C295 203 297 202 297 202

C299 202 310 198 312 196

C313 195 313 193 313 189

L312 183

L318 183

C326 182 334 179 335 178

C336 177 336 174 336 172

L336 167

L340 167

C343 168 347 168 349 169

C353 170 354 170 357 169

C358 168 362 167 364 166

C369 164 369 164 370 167

C371 168 372 171 373 173

C373 178 375 179 379 179

C381 178 382 179 384 182

C385 184 386 186 386 187

C386 190 389 192 397 192

L405 193

L405 198

C405 203 406 204 410 205

C416 207 425 214 428 219

L430 223

L427 222

C425 222 422 222 421 222

L418 222

L418 231

C418 236 418 241 418 242

C417 243 416 243 414 241

C412 241 409 240 406 240

C401 240 400 240 397 244

C386 255 386 257 393 259

C396 260 398 261 398 261

C398 262 399 262 399 262

C401 262 405 266 405 267

C405 268 404 268 404 268

C403 268 402 268 402 267

C402 267 400 266 398 265

C394 263 387 264 384 267

L381 269

L380 267

C379 265 379 264 379 263

C379 262 365 249 364 249

C361 248 361 251 358 264

C357 268 356 269 355 269

C353 269 351 266 351 264

C351 261 347 249 346 249

C345 249 343 252 340 258

C338 261 334 267 331 272

C328 278 325 282 325 283

C325 284 326 287 328 289

C331 293 332 298 330 298

C330 298 327 296 324 294

Z

M336 248

C337 247 339 243 343 228

C344 225 344 223 343 218

C340 205 328 200 316 208

C310 212 306 220 306 225

C306 228 307 230 313 236

C320 243 330 250 333 250

C334 250 335 249 336 248

Z

M390 242

L399 233

L399 228

C399 221 396 214 391 210

C388 208 387 208 381 208

C372 208 369 209 366 215

C364 219 363 229 364 233

C365 237 378 250 380 250

C381 250 386 246 390 242

Z

M246 268

C245 267 245 267 246 267

C247 267 247 267 247 268

C247 269 247 269 247 269

C246 269 246 269 246 268

Z

M327 235

C320 234 319 234 318 230

C317 229 317 228 319 228

C320 227 321 226 321 224

C321 222 321 222 320 223

C318 224 314 224 314 223

C313 221 318 217 322 216

C325 215 327 215 329 216

C332 217 336 223 336 227

C336 228 337 229 337 230

C339 231 338 234 335 235

C334 235 330 235 327 235

Z

M374 236

C372 235 373 230 375 229

C376 229 379 227 381 226

C382 225 384 224 386 223

C387 223 388 222 388 221

C390 219 393 220 394 223

C396 230 395 232 386 234

C383 235 380 236 379 236

C379 237 375 237 374 236

Z

"/>

<path fill="#ca0418" stroke="none" d="
M377 443

C376 443 375 442 373 442

C372 441 367 439 363 436

C359 434 356 432 355 432

C355 432 353 431 352 430

C348 429 336 427 329 427

C322 427 305 429 303 430

C302 431 300 431 298 431

L295 431

L298 428

C303 426 319 409 322 405

L323 403

L334 403

C339 404 345 405 347 405

C348 406 352 408 355 409

C357 410 360 412 360 412

C361 413 362 414 371 418

C373 419 376 421 377 422

C378 423 381 423 385 423

C390 423 393 423 398 420

C409 415 412 414 419 414

C426 414 431 415 439 419

C453 425 459 426 472 426

C479 426 485 426 485 427

C485 428 475 437 471 439

C465 442 458 444 456 444

C453 444 443 441 442 439

C441 439 440 438 440 438

C439 438 438 437 437 437

C436 436 433 435 429 434

C424 432 422 432 416 434

C409 435 402 438 396 442

C393 444 391 444 385 444

C380 444 377 444 377 443

Z

M218 440

C217 439 213 439 210 438

C195 436 174 425 160 412

C145 398 131 372 127 354

C126 352 126 349 125 349

C125 348 124 340 122 325

C121 312 124 285 129 274

C129 272 130 270 130 269

C130 269 131 267 131 265

C132 264 134 260 135 257

C144 238 155 225 170 214

C175 210 187 202 189 202

C189 202 191 201 192 201

C199 198 207 195 211 195

C213 195 215 195 216 194

C217 193 222 193 226 192

C235 192 237 192 243 197

L245 199

L233 211

C223 220 222 222 222 224

C223 226 224 227 226 227

C228 228 229 229 229 229

C229 230 230 230 232 231

C237 232 240 237 236 241

C236 242 235 243 235 243

C235 243 233 247 231 250

L228 256

L224 254

C221 252 219 252 208 252

C198 252 196 253 195 254

C194 255 192 256 191 256

C190 256 189 257 188 258

C187 258 186 259 185 259

C184 259 168 276 168 278

C168 279 167 280 167 281

C166 282 165 283 165 284

C165 286 164 287 164 288

C161 290 160 300 160 314

C160 325 160 328 161 329

C161 329 162 331 162 333

C162 338 163 340 164 339

C166 339 165 332 163 329

C162 325 162 322 164 317

C166 314 166 313 168 313

C170 313 171 314 171 325

C172 337 173 340 179 347

C185 352 186 353 182 356

C180 358 180 358 177 356

C175 355 174 354 174 354

C174 353 174 353 173 353

C171 353 172 357 177 362

C183 368 193 374 198 374

C202 375 203 373 199 371

C194 368 191 362 191 356

C191 354 191 352 192 352

C193 352 193 353 193 353

C193 356 198 361 201 363

C203 364 206 365 208 365

C212 365 220 362 220 360

C220 359 221 359 222 359

C224 359 223 363 221 367

C218 370 210 375 206 375

C205 375 204 375 205 376

C206 379 221 376 230 371

C237 367 246 358 245 356

C244 356 243 357 241 357

C236 360 233 359 232 355

C231 353 232 353 236 351

C240 349 242 347 244 344

C248 335 249 332 249 326

C249 320 249 319 248 317

C246 315 246 315 248 313

L250 311

L252 313

C255 315 255 316 255 325

C255 339 257 341 258 328

C260 314 260 310 259 303

C258 299 258 295 259 295

C260 294 264 298 293 331

C298 336 303 342 305 344

C307 346 308 348 308 349

C308 351 306 358 304 363

C302 366 301 370 301 370

C301 370 303 370 305 369

C309 368 310 369 308 373

C307 375 306 377 306 379

C305 380 304 382 304 385

C301 391 303 393 306 389

C310 385 319 372 319 370

C320 369 321 368 322 367

C324 365 324 365 326 367

L328 370

L325 376

C318 390 312 399 303 408

C297 414 288 422 287 422

C287 422 285 423 283 425

C274 431 260 437 251 438

C248 439 244 439 242 440

C238 441 221 441 218 440

Z

M246 430

C249 429 252 428 252 428

C253 427 250 423 249 424

C247 424 231 427 221 428

C213 429 209 430 213 431

C221 433 238 433 246 430

Z

M248 354

C248 353 248 352 247 352

C246 352 246 353 246 354

C246 354 246 355 247 355

C248 355 248 354 248 354

Z

M171 351

C171 350 171 349 170 349

C169 349 169 350 169 351

C169 351 169 352 170 352

C171 352 171 351 171 351

Z

M251 349

C251 348 251 347 250 347

C249 347 249 348 249 349

C249 350 249 351 250 351

C251 351 251 350 251 349

Z

M168 344

C168 342 166 341 166 342

C165 343 166 347 167 346

C168 346 168 345 168 344

Z

M254 340

C253 339 253 339 253 340

C252 341 252 343 253 344

C253 345 253 345 254 344

C254 343 254 341 254 340

Z

M466 407

C460 405 455 403 451 401

C442 396 435 393 430 392

C424 390 412 390 407 392

C404 392 402 393 401 393

C400 393 397 394 395 395

C393 396 391 397 390 397

C390 397 389 397 389 398

C389 399 388 399 387 399

C386 399 385 399 386 398

C386 398 387 397 387 396

C387 394 397 380 401 378

C407 374 418 372 425 373

C437 375 442 376 444 377

C445 377 448 379 451 380

C454 381 457 383 458 384

C459 384 460 385 461 385

C461 385 462 386 463 387

C464 387 465 388 466 388

C467 388 468 389 469 389

C470 391 483 394 488 394

C494 394 505 392 509 389

C519 384 513 395 502 402

C491 409 477 411 466 407

Z

M367 390

C364 387 360 382 358 380

C356 377 353 374 353 374

C352 373 349 370 347 367

C342 361 330 347 327 344

C325 342 323 340 315 330

C312 326 309 322 307 321

C302 316 294 305 294 304

C295 303 296 303 297 302

C299 301 303 305 330 332

C349 351 361 363 362 363

C363 362 369 351 371 346

C372 345 372 344 373 343

C374 341 378 332 378 332

C378 331 379 330 380 329

L381 326

L384 330

C386 332 388 335 389 336

C390 337 393 340 394 343

L398 347

L395 351

C394 354 393 356 392 357

C392 358 391 359 391 360

C391 361 387 368 383 377

C375 391 373 395 372 395

C372 395 369 393 367 390

Z

M383 363

C387 355 390 348 390 348

C390 346 385 341 384 343

C382 344 379 351 379 353

C379 354 379 355 378 356

C378 356 376 360 374 365

L370 373

L372 375

C374 376 375 377 375 377

C376 377 379 370 383 363

Z

M201 342

C197 341 189 332 187 326

C182 310 188 293 200 287

C207 284 209 284 215 287

C222 290 228 297 230 304

C232 313 232 316 230 323

C225 339 216 345 201 342

Z

M217 328

C221 325 223 319 223 313

C223 307 223 306 220 302

C217 298 213 295 210 295

C206 295 201 298 199 302

C197 305 197 306 197 313

C197 321 197 322 199 325

C201 327 203 330 204 330

C208 331 215 330 217 328

Z

M409 341

C405 339 397 333 397 331

C397 330 399 330 401 330

L406 330

L406 319

C406 313 406 308 406 307

C407 306 408 306 410 307

C415 308 416 307 415 300

C414 296 414 292 413 290

C412 286 412 286 418 280

C421 277 425 273 427 269

C428 267 430 264 431 264

C433 263 442 266 446 269

C450 272 452 272 453 270

C453 267 450 247 448 238

C442 219 430 197 418 187

C413 183 412 182 408 182

C403 182 403 182 403 180

C403 178 403 177 404 176

C404 176 409 168 414 158

C419 148 423 139 424 138

L426 135

L428 139

C433 150 433 150 432 153

C431 154 430 157 429 159

C428 161 427 164 426 166

C420 179 420 178 427 186

C431 191 439 202 440 205

C441 206 442 209 444 212

C446 214 447 217 447 218

C447 219 448 220 449 221

C449 222 450 223 450 224

C450 226 451 227 451 229

C452 230 453 231 453 232

C453 233 454 235 454 236

C455 238 456 241 457 243

C457 245 458 247 458 248

C459 248 459 251 460 254

C460 256 461 259 461 260

C462 262 462 265 465 281

L465 286

L454 280

C448 277 443 275 442 275

C441 275 439 275 438 274

C435 272 430 276 423 286

C420 289 420 289 425 305

C425 309 426 313 427 315

L427 318

L422 317

C416 316 413 317 413 320

C414 325 415 341 414 342

C413 342 411 341 409 341

Z

M364 316

C364 315 364 314 365 314

C365 314 368 312 371 310

C378 305 382 301 385 295

C386 293 388 290 388 289

C389 288 389 284 390 280

C390 276 391 273 391 273

C391 273 392 274 393 276

C398 284 399 286 399 294

C399 301 399 303 396 306

C393 310 389 312 382 314

C375 316 365 317 364 316

Z

M351 313

C350 312 347 310 344 309

C337 305 336 303 336 293

L337 287

L341 284

C347 281 357 281 363 284

C369 287 371 290 371 297

C371 303 371 303 361 311

C354 316 353 316 351 313

Z

M357 295

C361 295 364 294 365 294

C365 293 364 292 363 290

C361 288 360 288 351 288

C344 288 342 288 341 290

C340 294 344 299 349 297

C350 296 354 295 357 295

Z

M173 309

C171 307 169 304 168 301

C166 297 165 290 167 289

C168 288 168 287 168 286

C168 283 172 279 176 277

C180 276 186 278 190 281

C192 283 192 283 191 284

C190 286 189 286 186 284

C182 282 180 282 177 284

C175 286 172 292 172 295

C172 298 174 305 176 309

C178 312 177 312 173 309

Z

M246 299

C248 285 240 277 231 283

C227 285 226 285 224 284

C221 282 229 275 236 275

C245 275 251 282 251 292

C251 297 251 299 248 302

L246 305

L246 299

Z

M281 295

C280 294 276 290 273 287

C270 284 266 281 264 279

C260 276 260 274 262 267

C263 263 262 259 260 259

C259 259 249 253 246 251

C246 251 248 248 250 245

C252 242 254 238 255 237

C255 236 256 235 257 234

C258 232 258 230 256 230

C255 230 253 229 251 228

L248 226

L254 221

C263 212 268 207 268 206

C268 206 266 204 264 203

C261 202 259 200 259 200

C259 200 261 198 263 196

C265 195 271 190 276 186

C281 181 286 177 288 176

C291 174 291 171 286 164

C283 160 282 158 283 156

C283 155 287 149 290 142

C294 135 297 129 297 128

C298 128 301 131 303 134

C304 135 303 143 301 157

C301 162 301 162 306 167

C309 171 311 174 311 174

C311 175 309 175 306 175

C302 175 301 176 299 178

C297 179 292 183 289 187

C278 196 277 197 277 199

C277 200 278 201 280 202

C283 202 283 203 283 204

C283 206 282 207 272 216

C268 220 265 222 265 223

C266 223 268 225 271 226

C273 227 276 228 276 229

C276 229 274 232 272 235

C270 239 267 243 266 245

C265 248 265 248 267 250

C268 251 271 252 273 253

C278 254 279 256 277 262

C277 265 276 268 275 269

C274 271 275 273 283 282

C286 286 290 290 290 290

C290 291 286 297 285 297

C284 297 283 296 281 295

Z

M184 272

C183 271 183 269 183 267

C184 264 189 259 192 259

C194 258 195 258 195 257

C195 256 200 256 207 256

C218 256 219 256 225 259

C231 262 232 263 232 266

C232 268 231 268 229 268

C228 268 226 267 225 266

C225 266 223 265 222 265

C220 265 218 264 217 264

C210 259 193 264 190 272

C189 275 185 275 184 272

Z

M375 233

C375 232 376 231 377 231

C378 230 381 228 385 226

C388 224 391 222 392 222

C392 222 392 224 393 226

C393 228 393 229 391 230

C390 230 388 231 386 232

C384 232 381 233 379 234

C376 234 375 234 375 233

Z

M324 232

L320 231

L324 231

C327 231 329 230 330 230

C331 228 331 228 327 227

C324 226 324 226 325 224

C327 222 327 222 325 221

C324 220 322 220 322 220

C321 220 320 220 320 219

C320 218 322 218 325 218

L330 218

L333 223

C334 226 335 230 335 231

C335 233 333 233 324 232

Z

M434 186

C434 185 435 182 435 179

C436 177 438 172 438 170

C438 168 439 164 440 163

C441 159 441 148 439 145

C439 143 438 141 438 140

C438 136 427 122 424 122

C422 122 416 127 414 130

C408 136 406 139 402 144

C401 148 399 151 399 152

C399 153 398 155 398 156

C397 158 396 163 395 167

C395 172 394 176 394 175

C393 174 388 166 387 163

C386 161 385 160 385 160

C385 160 384 159 383 158

C382 154 379 150 377 150

C376 150 375 151 374 152

C373 153 371 153 369 153

C367 153 365 153 364 152

C363 149 359 150 356 153

C354 154 352 155 351 155

C350 155 348 153 345 151

C343 149 341 147 340 147

C340 147 335 151 330 157

C325 162 320 166 320 166

C318 165 316 154 316 148

C316 145 315 143 315 141

C314 140 313 139 313 137

C313 131 301 115 296 115

C294 115 285 124 283 128

C282 130 282 131 281 132

C278 137 278 139 277 144

C275 151 275 161 276 170

C277 178 276 180 273 175

C271 171 270 155 272 148

C273 146 274 142 274 140

C275 137 276 135 276 134

C277 133 278 130 280 127

C285 115 295 102 299 102

C302 102 318 118 318 121

C318 121 319 122 319 123

C320 124 326 134 329 139

C330 141 334 141 337 139

L339 137

L344 141

C346 143 349 145 349 145

C351 145 358 140 358 139

C358 137 362 138 365 141

C369 145 371 145 375 141

L378 138

L381 141

C383 143 385 144 386 144

C388 144 396 136 413 117

C417 113 421 109 422 109

C423 109 424 110 425 111

C429 116 434 122 434 123

C435 124 436 126 437 129

C439 131 440 134 441 136

C441 138 442 140 442 141

C444 143 444 164 443 169

C443 172 442 176 441 178

C440 183 437 189 436 189

C435 189 435 188 434 186

Z

"/>

<path fill="#333330" stroke="none" d="
M377 443

C376 443 375 442 373 442

C372 441 367 439 363 436

C359 434 356 432 355 432

C355 432 353 431 352 430

C348 429 336 427 329 427

C322 427 305 429 303 430

C302 431 300 431 298 431

L295 431

L298 428

C303 426 319 409 322 405

L323 403

L334 403

C339 404 345 405 347 405

C348 406 352 408 355 409

C357 410 360 412 360 412

C361 413 362 414 371 418

C373 419 376 421 377 422

C378 423 381 423 385 423

C390 423 393 423 398 420

C409 415 412 414 419 414

C426 414 431 415 439 419

C453 425 459 426 472 426

C479 426 485 426 485 427

C485 428 475 437 471 439

C465 442 458 444 456 444

C453 444 443 441 442 439

C441 439 440 438 440 438

C439 438 438 437 437 437

C436 436 433 435 429 434

C424 432 422 432 416 434

C409 435 402 438 396 442

C393 444 391 444 385 444

C380 444 377 444 377 443

Z

M218 440

C217 439 213 439 210 438

C195 436 174 425 160 412

C145 398 131 372 127 354

C126 352 126 349 125 349

C125 348 124 340 122 325

C121 312 124 285 129 274

C129 272 130 270 130 269

C130 269 131 267 131 265

C132 264 134 260 135 257

C144 238 155 225 170 214

C175 210 187 202 189 202

C189 202 191 201 192 201

C199 198 207 195 211 195

C213 195 215 195 216 194

C217 193 222 193 226 192

C235 192 237 192 243 197

L245 199

L239 205

C234 210 232 211 230 210

C226 208 215 208 210 209

C207 210 202 210 200 211

C193 212 182 217 172 224

C166 227 152 242 148 249

C145 253 143 256 142 258

C142 259 141 260 140 261

C140 262 139 264 138 267

C134 276 131 287 129 299

C128 310 128 313 129 324

C131 343 134 354 142 369

C158 400 187 419 217 419

C255 419 288 392 301 351

C302 348 303 345 304 344

C304 343 308 347 308 349

C308 351 305 358 304 363

C302 366 301 370 301 370

C301 370 303 370 305 369

C309 368 310 369 308 373

C307 375 306 377 306 379

C305 380 304 382 304 385

C301 391 303 393 306 389

C310 385 319 372 319 370

C320 369 321 368 322 367

C324 365 324 365 326 367

L328 370

L325 376

C318 390 312 399 303 408

C297 414 288 422 287 422

C287 422 285 423 283 425

C274 431 260 437 251 438

C248 439 244 439 242 440

C238 441 221 441 218 440

Z

M246 430

C249 429 252 428 252 428

C253 427 250 423 249 424

C247 424 231 427 221 428

C213 429 209 430 213 431

C221 433 238 433 246 430

Z

M466 407

C460 405 455 403 451 401

C442 396 435 393 430 392

C424 390 412 390 407 392

C404 392 402 393 401 393

C400 393 397 394 395 395

C393 396 391 397 390 397

C390 397 389 397 389 398

C389 399 388 399 387 399

C386 399 385 399 386 398

C386 398 387 397 387 396

C387 394 397 380 401 378

C407 374 418 372 425 373

C437 375 442 376 444 377

C445 377 448 379 451 380

C454 381 457 383 458 384

C459 384 460 385 461 385

C461 385 462 386 463 387

C464 387 465 388 466 388

C467 388 468 389 469 389

C470 391 483 394 488 394

C494 394 505 392 509 389

C519 384 513 395 502 402

C491 409 477 411 466 407

Z

M367 390

C364 387 360 382 358 380

C356 377 353 374 353 374

C352 373 349 370 347 367

C342 361 330 347 327 344

C325 342 323 340 315 330

C312 326 309 322 307 321

C302 316 294 305 294 304

C295 303 296 303 297 302

C299 301 303 305 330 332

C349 351 361 363 362 363

C363 362 369 351 371 346

C372 345 372 344 373 343

C374 341 378 332 378 332

C378 331 379 330 380 329

L381 326

L384 330

C386 332 388 335 389 336

C390 337 393 340 394 343

L398 347

L395 351

C394 354 393 356 392 357

C392 358 391 359 391 360

C391 361 387 368 383 377

C375 391 373 395 372 395

C372 395 369 393 367 390

Z

M383 363

C387 355 390 348 390 348

C390 346 385 341 384 343

C382 344 379 351 379 353

C379 354 379 355 378 356

C378 356 376 360 374 365

L370 373

L372 375

C374 376 375 377 375 377

C376 377 379 370 383 363

Z

M205 388

C195 387 187 382 177 372

C167 362 162 353 157 337

C154 327 154 301 157 291

C158 288 159 284 159 284

C159 282 165 270 169 264

C175 256 185 247 193 243

C194 243 196 242 198 241

C205 239 224 239 230 242

C234 243 235 245 234 245

C234 246 232 249 231 251

L228 256

L224 254

C221 252 219 252 208 252

C198 252 196 253 195 254

C194 255 192 256 191 256

C190 256 189 257 188 258

C187 258 186 259 185 259

C184 259 168 276 168 278

C168 279 167 280 167 281

C166 282 165 283 165 284

C165 286 164 287 164 288

C161 290 160 300 160 314

C160 325 160 328 161 329

C161 329 162 331 162 333

C162 338 163 340 164 339

C166 339 165 332 163 329

C162 325 162 322 164 317

C166 314 166 313 168 313

C170 313 171 314 171 325

C172 337 173 340 179 347

C185 352 186 353 182 356

C180 358 180 358 177 356

C175 355 174 354 174 354

C174 353 174 353 173 353

C171 353 172 357 177 362

C183 368 193 374 198 374

C202 375 203 373 199 371

C194 368 191 362 191 356

C191 354 191 352 192 352

C193 352 193 353 193 353

C193 356 198 361 201 363

C203 364 206 365 208 365

C212 365 220 362 220 360

C220 359 221 359 222 359

C224 359 223 363 221 367

C218 370 210 375 206 375

C205 375 204 375 205 376

C206 379 221 376 230 371

C237 367 246 358 245 356

C244 356 243 357 241 357

C236 360 233 359 232 355

C231 353 232 353 236 351

C240 349 242 347 244 344

C248 335 249 332 249 326

C249 320 249 319 248 317

C246 315 246 315 248 313

L250 311

L252 313

C255 315 255 316 255 325

C255 339 257 341 258 328

C260 314 260 310 259 303

C258 299 258 295 259 295

C260 293 272 306 272 310

C274 319 271 337 266 349

C265 351 264 353 264 353

C264 355 257 365 252 370

C237 386 224 390 205 388

Z

M248 354

C248 353 248 352 247 352

C246 352 246 353 246 354

C246 354 246 355 247 355

C248 355 248 354 248 354

Z

M171 351

C171 350 171 349 170 349

C169 349 169 350 169 351

C169 351 169 352 170 352

C171 352 171 351 171 351

Z

M251 349

C251 348 251 347 250 347

C249 347 249 348 249 349

C249 350 249 351 250 351

C251 351 251 350 251 349

Z

M168 344

C168 342 166 341 166 342

C165 343 166 347 167 346

C168 346 168 345 168 344

Z

M254 340

C253 339 253 339 253 340

C252 341 252 343 253 344

C253 345 253 345 254 344

C254 343 254 341 254 340

Z

M201 342

C197 341 189 332 187 326

C182 310 188 293 200 287

C207 284 209 284 215 287

C222 290 228 297 230 304

C232 313 232 316 230 323

C225 339 216 345 201 342

Z

M217 328

C221 325 223 319 223 313

C223 307 223 306 220 302

C217 298 213 295 210 295

C206 295 201 298 199 302

C197 305 197 306 197 313

C197 321 197 322 199 325

C201 327 203 330 204 330

C208 331 215 330 217 328

Z

M409 341

C405 339 397 333 397 331

C397 330 399 330 401 330

L406 330

L406 319

C406 313 406 308 406 307

C407 306 408 306 410 307

C415 308 416 307 415 300

C414 296 414 292 413 290

C412 286 412 286 418 280

C421 277 425 273 427 269

C428 267 430 264 431 264

C433 263 442 266 446 269

C450 272 452 272 453 270

C453 267 450 247 448 238

C442 219 430 197 418 187

C413 183 412 182 408 182

C403 182 403 182 403 180

C403 178 403 177 404 176

C404 176 409 168 414 158

C419 148 423 139 424 138

L426 135

L428 139

C433 150 433 150 432 153

C431 154 430 157 429 159

C428 161 427 164 426 166

C420 179 420 178 427 186

C431 191 439 202 440 205

C441 206 442 209 444 212

C446 214 447 217 447 218

C447 219 448 220 449 221

C449 222 450 223 450 224

C450 226 451 227 451 229

C452 230 453 231 453 232

C453 233 454 235 454 236

C455 238 456 241 457 243

C457 245 458 247 458 248

C459 248 459 251 460 254

C460 256 461 259 461 260

C462 262 462 265 465 281

L465 286

L454 280

C448 277 443 275 442 275

C441 275 439 275 438 274

C435 272 430 276 423 286

C420 289 420 289 425 305

C425 309 426 313 427 315

L427 318

L422 317

C416 316 413 317 413 320

C414 325 415 341 414 342

C413 342 411 341 409 341

Z

M364 316

C364 315 364 314 365 314

C365 314 368 312 371 310

C378 305 382 301 385 295

C386 293 388 290 388 289

C389 288 389 284 390 280

C390 276 391 273 391 273

C391 273 392 274 393 276

C398 284 399 286 399 294

C399 301 399 303 396 306

C393 310 389 312 382 314

C375 316 365 317 364 316

Z

M388 308

C394 305 395 304 395 299

C395 294 393 294 390 298

C389 300 387 301 385 301

C384 301 383 302 381 304

C379 310 382 312 388 308

Z

M351 313

C350 312 347 310 344 309

C337 305 336 303 336 293

L337 287

L341 284

C347 281 357 281 363 284

C369 287 371 290 371 297

C371 303 371 303 361 311

C354 316 353 316 351 313

Z

M357 295

C361 295 364 294 365 294

C365 293 364 292 363 290

C361 288 360 288 351 288

C344 288 342 288 341 290

C340 294 344 299 349 297

C350 296 354 295 357 295

Z

M173 309

C171 307 169 304 168 301

C166 297 165 290 167 289

C168 288 168 287 168 286

C168 283 172 279 176 277

C180 276 186 278 190 281

C192 283 192 283 191 284

C190 286 189 286 186 284

C182 282 180 282 177 284

C175 286 172 292 172 295

C172 298 174 305 176 309

C178 312 177 312 173 309

Z

M246 299

C248 285 240 277 231 283

C227 285 226 285 224 284

C221 282 229 275 236 275

C245 275 251 282 251 292

C251 297 251 299 248 302

L246 305

L246 299

Z

M281 295

C280 294 276 290 273 287

C270 284 266 281 264 279

C260 276 260 274 262 267

C263 263 262 259 260 259

C259 259 249 253 246 251

C246 251 248 248 250 245

C252 242 254 238 255 237

C255 236 256 235 257 234

C258 232 258 230 256 230

C255 230 253 229 251 228

L248 226

L254 221

C263 212 268 207 268 206

C268 206 266 204 264 203

C261 202 259 200 259 200

C259 200 261 198 263 196

C265 195 271 190 276 186

C281 181 286 177 288 176

C291 174 291 171 286 164

C283 160 282 158 283 156

C283 155 287 149 290 142

C294 135 297 129 297 128

C298 128 301 131 303 134

C304 135 303 143 301 157

C301 162 301 162 306 167

C309 171 311 174 311 174

C311 175 309 175 306 175

C302 175 301 176 299 178

C297 179 292 183 289 187

C278 196 277 197 277 199

C277 200 278 201 280 202

C283 202 283 203 283 204

C283 206 282 207 272 216

C268 220 265 222 265 223

C266 223 268 225 271 226

C273 227 276 228 276 229

C276 229 274 232 272 235

C270 239 267 243 266 245

C265 248 265 248 267 250

C268 251 271 252 273 253

C278 254 279 256 277 262

C277 265 276 268 275 269

C274 271 275 273 283 282

C286 286 290 290 290 290

C290 291 286 297 285 297

C284 297 283 296 281 295

Z

M184 272

C183 271 183 269 183 267

C184 264 189 259 192 259

C194 258 195 258 195 257

C195 256 200 256 207 256

C218 256 219 256 225 259

C231 262 232 263 232 266

C232 268 231 268 229 268

C228 268 226 267 225 266

C225 266 223 265 222 265

C220 265 218 264 217 264

C210 259 193 264 190 272

C189 275 185 275 184 272

Z

M375 233

C375 232 376 231 377 231

C378 230 381 228 385 226

C388 224 391 222 392 222

C392 222 392 224 393 226

C393 228 393 229 391 230

C390 230 388 231 386 232

C384 232 381 233 379 234

C376 234 375 234 375 233

Z

M324 232

L320 231

L324 231

C327 231 329 230 330 230

C331 228 331 228 327 227

C324 226 324 226 325 224

C327 222 327 222 325 221

C324 220 322 220 322 220

C321 220 320 220 320 219

C320 218 322 218 325 218

L330 218

L333 223

C334 226 335 230 335 231

C335 233 333 233 324 232

Z

M434 186

C434 185 435 182 435 179

C436 177 438 172 438 170

C438 168 439 164 440 163

C441 159 441 148 439 145

C439 143 438 141 438 140

C438 136 427 122 424 122

C422 122 416 127 414 130

C408 136 406 139 402 144

C401 148 399 151 399 152

C399 153 398 155 398 156

C397 158 396 163 395 167

C395 172 394 176 394 175

C393 174 388 166 387 163

C386 161 385 160 385 160

C385 160 384 159 383 158

C382 154 379 150 377 150

C376 150 375 151 374 152

C373 153 371 153 369 153

C367 153 365 153 364 152

C363 149 359 150 356 153

C354 154 352 155 351 155

C350 155 348 153 345 151

C343 149 341 147 340 147

C340 147 335 151 330 157

C325 162 320 166 320 166

C318 165 316 154 316 148

C316 145 315 143 315 141

C314 140 313 139 313 137

C313 131 301 115 296 115

C294 115 285 124 283 128

C282 130 282 131 281 132

C278 137 278 139 277 144

C275 151 275 161 276 170

C277 178 276 180 273 175

C271 171 270 155 272 148

C273 146 274 142 274 140

C275 137 276 135 276 134

C277 133 278 130 280 127

C285 115 295 102 299 102

C302 102 318 118 318 121

C318 121 319 122 319 123

C320 124 326 134 329 139

C330 141 334 141 337 139

L339 137

L344 141

C346 143 349 145 349 145

C351 145 358 140 358 139

C358 137 362 138 365 141

C369 145 371 145 375 141

L378 138

L381 141

C383 143 385 144 386 144

C388 144 396 136 413 117

C417 113 421 109 422 109

C423 109 424 110 425 111

C429 116 434 122 434 123

C435 124 436 126 437 129

C439 131 440 134 441 136

C441 138 442 140 442 141

C444 143 444 164 443 169

C443 172 442 176 441 178

C440 183 437 189 436 189

C435 189 435 188 434 186

Z

"/>

</svg>

