<?xml version="1.0" encoding="UTF-8" standalone="no"?>
<svg
   version="1.0"
   width="612.000000pt"
   height="536.000000pt"
   viewBox="0 0 612.000000 536.000000"
   preserveAspectRatio="xMidYMid meet"
   id="svg2"
   sodipodi:docname="spreewoelfe_2.svg"
   inkscape:version="1.4.2 (ebf0e940, 2025-05-08)"
   xmlns:inkscape="http://www.inkscape.org/namespaces/inkscape"
   xmlns:sodipodi="http://sodipodi.sourceforge.net/DTD/sodipodi-0.dtd"
   xmlns="http://www.w3.org/2000/svg"
   xmlns:svg="http://www.w3.org/2000/svg">
  <defs
     id="defs2" />
  <sodipodi:namedview
     id="namedview2"
     pagecolor="#ffffff"
     bordercolor="#000000"
     borderopacity="0.25"
     inkscape:showpageshadow="2"
     inkscape:pageopacity="0.0"
     inkscape:pagecheckerboard="0"
     inkscape:deskcolor="#d1d1d1"
     inkscape:document-units="pt"
     inkscape:zoom="0.36669393"
     inkscape:cx="404.96989"
     inkscape:cy="426.78644"
     inkscape:window-width="1368"
     inkscape:window-height="626"
     inkscape:window-x="0"
     inkscape:window-y="38"
     inkscape:window-maximized="0"
     inkscape:current-layer="svg2" />
  <path
     fill="#333330"
     stroke="none"
     d="m 376,443 c -2,0 -4,-1 -4,-1 -1,0 -5,-2 -9,-5 -15,-9 -15,-9 -36,-8 -15,0 -19,0 -22,1 -5,2 -11,3 -11,1 0,-1 1,-2 3,-2 3,-2 17,-16 22,-22 3,-3 5,-5 7,-5 4,-1 18,1 23,4 7,3 11,4 12,6 1,1 11,6 18,10 4,2 11,1 18,-2 16,-9 26,-9 43,-2 2,1 6,2 8,3 2,1 6,2 9,3 2,1 8,2 16,2 8,0 12,0 13,1 0,1 -10,10 -15,13 -13,6 -21,5 -33,-2 -5,-3 -6,-3 -16,-3 h -10 l -11,5 c -9,4 -11,5 -16,5 -4,0 -8,-1 -9,-2 z m -156,-2 c -3,0 -7,-1 -11,-2 -4,-1 -7,-1 -7,-2 -1,0 -3,-1 -4,-1 -3,-1 -13,-6 -19,-9 -4,-2 -14,-10 -19,-15 -9,-8 -20,-23 -26,-37 -3,-7 -5,-11 -9,-25 -3,-10 -5,-35 -3,-49 6,-45 30,-82 64,-98 16,-8 24,-10 41,-11 h 11 l 3,3 4,4 c 0,1 -3,5 -7,8 -4,4 -9,8 -12,10 -5,5 -5,8 -1,10 2,1 4,2 5,3 1,0 2,1 3,1 l 4,2 2,3 -4,8 c -2,5 -5,9 -5,10 -2,2 -6,3 -8,1 -1,-2 -4,-2 -12,-2 -16,0 -17,2 -1,2 10,1 13,1 15,2 0,1 2,2 3,2 2,0 6,4 6,7 0,1 0,2 -1,3 -1,1 -2,1 -7,-2 -3,-2 -12,-4 -16,-4 -5,0 -12,2 -15,5 l -4,4 c -1,4 -5,4 -7,0 -1,-2 -1,-3 0,-6 1,-2 1,-3 1,-4 -1,0 -4,2 -7,6 -7,8 -8,9 -8,11 0,2 0,2 4,0 5,-4 7,-4 10,-3 l 4,2 c 1,0 3,1 4,2 2,3 2,3 1,5 -2,2 -2,2 -6,0 -4,-3 -4,-3 -7,-1 -5,3 -7,9 -5,17 1,3 2,6 3,7 1,2 1,5 0,5 -4,0 -12,-13 -12,-19 0,-6 -2,-5 -3,1 -3,16 -3,18 -2,24 0,5 0,5 1,2 2,-7 7,-11 10,-8 0,1 1,6 1,11 0,7 0,10 1,13 1,1 2,3 2,4 0,1 7,8 9,8 3,1 1,8 -3,9 -1,1 -3,0 -4,-1 -2,-2 -2,0 0,3 2,4 12,11 14,11 1,0 2,1 3,2 1,1 6,2 6,0 l -3,-3 c -4,-3 -7,-9 -7,-12 0,-2 -1,-4 -1,-5 -1,-2 -1,-4 -1,-5 1,-1 1,-1 2,1 1,1 1,2 2,2 l 2,2 c 1,6 8,11 14,11 4,0 12,-3 12,-5 0,-1 1,-1 1,-1 1,0 2,-1 3,-3 1,-4 1,-5 1,-1 0,7 -4,16 -9,18 -2,1 -2,1 1,2 3,0 6,-1 10,-3 6,-3 15,-10 15,-11 0,-1 -2,-1 -3,0 -3,0 -4,0 -6,-2 -4,-3 -4,-8 -1,-8 3,1 8,-2 11,-5 6,-10 8,-27 3,-28 -2,-1 -1,-4 2,-6 2,-1 2,-1 5,1 2,3 2,4 3,13 v 11 l 1,-8 c 2,-10 1,-28 0,-32 -1,-4 -1,-4 1,-3 2,1 10,9 19,19 7,9 18,22 25,28 4,4 7,8 7,9 0,2 -2,7 -5,12 -2,5 -1,7 2,7 3,0 3,0 3,3 0,2 0,3 -1,3 0,1 -1,2 -2,4 0,2 -1,5 -2,6 -1,2 -1,4 -1,5 1,1 1,1 3,-1 3,-3 8,-10 12,-16 1,-2 3,-5 4,-6 1,-2 1,-2 4,0 1,1 2,3 2,4 0,2 -8,17 -13,24 -7,11 -22,25 -32,32 -7,4 -17,9 -20,10 -2,0 -4,1 -5,1 0,1 -3,1 -7,2 -4,1 -9,2 -11,2 -5,1 -15,1 -20,0 z m 21,-10 c 1,-1 4,-1 7,-2 2,0 4,-1 4,-2 0,-2 -10,-2 -21,1 -4,0 -9,1 -12,1 -5,0 -8,1 -4,2 3,1 23,1 26,0 z m -77,-98 c -1,-1 -1,-1 -1,2 0,2 0,3 1,2 z m 3,-50 c -1,-1 -1,-1 -1,2 0,2 0,2 1,1 1,-2 1,-3 0,-3 z m 20,-22 c 0,-1 0,-1 -1,-1 -1,0 -1,0 -1,1 v 1 c 1,0 1,0 2,-1 z m 5,-4 h -2 c -1,1 0,1 1,1 1,0 2,0 1,-1 z m 280,152 c -5,0 -17,-5 -21,-7 -5,-3 -16,-8 -21,-9 -12,-4 -27,-1 -40,6 -3,1 -6,1 -6,0 0,0 3,-5 6,-9 8,-13 16,-18 30,-18 7,0 19,2 24,4 2,1 17,8 23,12 6,3 18,5 24,5 7,-1 16,-3 19,-5 1,0 3,-1 4,-1 8,0 -9,16 -21,20 -5,2 -16,3 -21,2 z M 366,390 c -3,-4 -9,-10 -12,-14 -4,-5 -10,-12 -14,-16 -3,-4 -7,-8 -7,-9 -2,-1 -9,-10 -20,-22 -4,-5 -8,-9 -8,-9 -1,-1 -11,-13 -11,-14 -1,-2 2,-5 5,-5 1,0 10,8 32,31 16,16 30,30 31,30 0,0 3,-4 5,-9 2,-5 6,-11 7,-15 2,-3 3,-6 3,-6 0,-2 4,-7 5,-6 2,1 16,20 16,21 0,1 -1,3 -2,5 -1,2 -6,11 -11,22 -9,18 -11,22 -13,22 -1,0 -3,-3 -6,-6 z m 17,-29 6,-13 -2,-3 -3,-2 -2,5 c -1,3 -3,7 -4,9 0,2 -2,4 -2,6 -4,8 -4,10 -3,11 1,1 2,2 2,1 1,0 4,-7 8,-14 z M 201,343 c -4,-1 -13,-10 -15,-16 -1,-2 -1,-7 -2,-11 -1,-24 21,-40 38,-26 9,7 13,23 9,35 -6,15 -16,21 -30,18 z m 15,-15 c 5,-4 8,-16 5,-23 -4,-8 -10,-11 -16,-8 -5,3 -8,8 -8,17 0,7 2,11 6,15 3,1 10,1 13,-1 z m 218,13 c 0,-2 1,-4 2,-4 1,0 1,0 0,1 0,0 -1,2 -1,4 -1,2 -1,2 -1,-1 z m -28,-1 c -5,-3 -10,-9 -10,-10 1,-2 2,-2 4,-1 2,1 4,1 4,0 1,0 1,-5 1,-11 0,-7 0,-12 1,-12 0,-1 2,0 4,0 5,2 6,1 4,-9 -3,-12 -3,-12 2,-15 5,-5 7,-8 10,-14 3,-4 4,-5 6,-5 3,0 11,3 14,5 3,2 6,3 6,0 0,-3 -3,-23 -3,-24 -1,0 -1,-3 -2,-5 -2,-9 -5,-17 -12,-30 -3,-6 -13,-18 -18,-22 -3,-3 -5,-4 -8,-4 -5,0 -7,-1 -7,-2 0,-2 21,-43 23,-45 2,-2 2,-2 3,0 0,1 1,2 1,3 1,1 1,2 2,3 0,1 1,3 2,5 1,3 1,3 0,7 l -7,14 c -1,2 -2,5 -3,7 -1,1 -1,3 0,4 1,2 9,12 10,13 1,0 1,1 1,1 0,1 1,3 3,5 3,5 8,14 10,17 0,1 1,4 2,6 1,2 3,5 3,7 5,10 11,36 14,54 0,5 0,6 -4,3 -9,-6 -24,-11 -28,-10 -1,0 -4,3 -7,7 -5,5 -5,6 -5,10 1,5 3,15 5,19 1,2 1,4 1,6 -1,2 -1,2 -3,1 h -6 -4 v 12 12 h -3 c -2,0 -5,-1 -6,-2 z m -43,-24 c -1,0 0,-1 2,-3 2,-2 4,-3 4,-3 1,0 3,-2 6,-4 8,-6 14,-17 14,-27 0,-8 3,-8 8,1 3,5 4,15 2,22 -2,6 -7,10 -16,13 -8,2 -17,3 -20,1 z m -13,-2 c -2,-2 -5,-4 -8,-5 -5,-3 -6,-4 -7,-12 -1,-9 0,-11 6,-14 10,-4 22,-2 29,5 4,5 2,16 -2,18 -2,1 -5,3 -8,6 -2,2 -5,4 -6,4 -1,0 -3,-1 -4,-2 z m 0,-18 c 2,-1 6,-2 8,-2 6,0 7,-1 3,-4 -2,-2 -4,-2 -8,-2 -9,0 -11,1 -11,3 0,2 3,6 3,6 0,0 2,-1 5,-1 z m -107,10 c 0,-1 0,-2 1,-2 1,0 2,-10 1,-14 -1,-6 -4,-8 -9,-8 -3,0 -4,1 -6,2 -2,3 -2,3 -5,1 -2,-1 -3,-2 -2,-3 v -3 c 0,0 2,0 4,-2 8,-5 15,-4 21,3 4,5 4,6 4,12 0,6 0,7 -4,12 -4,4 -5,4 -5,2 z m 201,-2 c 0,-1 2,-3 3,-3 0,0 0,1 -1,2 -1,1 -2,2 -2,1 z M 279,293 c -18,-16 -20,-18 -19,-21 1,-2 2,-9 1,-11 0,0 -4,-2 -8,-5 -4,-2 -7,-5 -7,-5 0,-1 1,-3 2,-4 6,-9 9,-15 9,-15 0,-1 -2,-2 -4,-3 -2,-1 -4,-2 -5,-3 0,-1 6,-7 15,-15 5,-4 5,-6 2,-6 -1,-1 -4,-2 -5,-3 l -2,-2 4,-3 c 7,-7 18,-15 22,-19 3,-2 5,-4 6,-5 0,-1 -1,-4 -4,-8 -4,-6 -5,-7 -4,-9 0,-1 2,-4 4,-7 1,-3 3,-6 3,-7 1,0 1,-1 1,-2 0,-1 1,-2 2,-3 0,-1 1,-2 1,-3 0,-1 1,-3 3,-4 l 2,-3 3,2 c 4,5 4,6 3,12 0,3 -1,9 -2,13 v 8 l 5,6 c 3,3 5,6 5,6 0,1 -3,2 -6,2 -4,0 -5,1 -10,5 -2,2 -8,7 -11,10 -8,6 -9,9 -4,10 5,1 4,4 -3,10 l -9,9 -3,3 5,2 c 3,2 6,3 6,4 0,0 -1,1 -1,2 -1,1 -4,5 -6,9 l -5,8 3,2 c 2,1 5,2 6,3 4,0 7,4 5,6 0,1 -1,3 -2,5 0,2 -1,4 -1,5 -2,1 0,5 7,13 8,8 8,9 5,13 -3,3 -5,3 -9,-2 z m 96,-58 c -2,-1 -1,-4 1,-5 3,-1 5,-3 11,-6 5,-4 6,-3 6,2 v 4 l -9,3 c -5,2 -9,3 -9,3 z m -50,-2 c -6,-1 -6,-2 -1,-3 6,-1 7,-2 3,-2 -3,-1 -4,-2 -4,-3 0,0 0,-1 1,-1 1,0 1,-1 1,-1 0,-1 -1,-2 -3,-2 -2,0 -3,-1 -3,-1 0,-2 3,-3 8,-3 3,0 4,1 6,5 1,3 2,6 2,8 0,3 0,4 -2,4 -2,0 -6,-1 -8,-1 z m 109,-45 c -1,-3 -1,-5 1,-9 6,-20 6,-31 0,-44 -2,-4 -7,-9 -10,-11 -2,-1 -3,-1 -4,0 -3,2 -8,7 -12,12 -3,3 -10,16 -10,19 0,1 0,2 -1,3 -1,0 -2,5 -2,9 0,5 -1,9 -1,10 -1,0 -2,-2 -4,-5 -2,-3 -3,-6 -4,-7 0,-1 -2,-4 -5,-8 -2,-3 -4,-6 -5,-6 l -4,2 c -3,2 -4,2 -6,1 -1,-1 -3,-2 -3,-3 -2,-2 -3,-1 -8,2 -2,2 -4,3 -5,3 -1,0 -3,-2 -6,-4 -2,-2 -4,-4 -5,-4 0,0 -5,4 -10,10 -5,5 -10,9 -10,9 -2,0 -3,-2 -4,-13 -1,-10 -3,-15 -7,-24 -3,-7 -10,-15 -13,-15 -2,0 -12,12 -15,19 -4,9 -6,20 -4,32 1,7 1,10 0,11 l -1,2 -2,-2 c -2,-2 -2,-3 -2,-16 0,-20 2,-29 12,-44 2,-3 6,-8 9,-11 4,-4 5,-5 7,-4 5,1 20,18 28,33 3,6 5,7 7,4 4,-3 5,-3 9,2 2,1 5,3 6,3 1,0 3,-2 5,-4 2,-1 5,-3 5,-3 1,0 3,2 5,4 4,3 6,3 10,-1 3,-3 4,-3 7,1 3,3 3,3 5,2 2,-1 8,-8 15,-15 15,-16 19,-20 20,-20 3,0 16,17 16,20 0,1 1,2 2,3 0,1 1,2 1,3 0,1 1,4 2,6 2,5 2,29 -1,36 -4,14 -6,17 -8,12 z M 240,152 c 1,-1 2,-1 2,-2 0,-1 0,-1 1,-1 1,1 -2,4 -4,4 -1,0 -1,0 1,-1 z"
     id="path2"
     sodipodi:nodetypes="cccccsccccccccscscccsccsccsccscscccccccccscccccccsccssscsscscccscccccccccssccccscsccscssccscccccssccsccssccccccccccssccscssccccscccsccccsccccscscccscccscccssccccscccccccsccccscccccccccsccscccsscsccccccccscccccccccccsccssccsccscscccccsssccccssscccccsccccccsccccccsccccccsccsccsccccsccccsssscscssccsscsccccccscsscsscccccccscccsccccccccscsccccccccsccscccccccccccccccccccsccccccccscscscsscccccccscscscccccccsccccccsccccssssccccscccscscsscsccccscsc"
     style="fill:#000000" />
</svg>
