<?xml version="1.0" encoding="UTF-8" standalone="no"?>
<svg
   version="1.0"
   width="556.000000pt"
   height="514.000000pt"
   viewBox="0 0 556.000000 514.000000"
   preserveAspectRatio="xMidYMid meet"
   id="svg2"
   sodipodi:docname="spreewoelfe.svg"
   inkscape:version="1.4.2 (ebf0e940, 2025-05-08)"
   xmlns:inkscape="http://www.inkscape.org/namespaces/inkscape"
   xmlns:sodipodi="http://sodipodi.sourceforge.net/DTD/sodipodi-0.dtd"
   xmlns="http://www.w3.org/2000/svg"
   xmlns:svg="http://www.w3.org/2000/svg">
  <defs
     id="defs2" />
  <sodipodi:namedview
     id="namedview2"
     pagecolor="#ffffff"
     bordercolor="#000000"
     borderopacity="0.25"
     inkscape:showpageshadow="2"
     inkscape:pageopacity="0.0"
     inkscape:pagecheckerboard="0"
     inkscape:deskcolor="#d1d1d1"
     inkscape:document-units="pt"
     inkscape:zoom="0.75212663"
     inkscape:cx="384.24381"
     inkscape:cy="416.81811"
     inkscape:window-width="1512"
     inkscape:window-height="884"
     inkscape:window-x="0"
     inkscape:window-y="38"
     inkscape:window-maximized="1"
     inkscape:current-layer="svg2" />
  <path
     fill="#041f13"
     stroke="none"
     d="m 360,455 c 13,-6 19,-6 36,-3 7,2 16,3 19,3 25,0 49,-18 74,-56 5,-9 5,-8 15,-28 l 12,-24 c 0,-2 1,-5 2,-7 1,-2 2,-5 3,-7 0,-4 0,-4 -2,-4 -1,0 -2,0 -2,1 l -2,2 c -3,1 -5,3 -11,6 -2,2 -7,5 -12,7 -17,8 -22,9 -35,9 -10,0 -10,0 -17,-4 -16,-8 -35,-17 -41,-19 -3,0 -5,-3 -3,-6 0,-2 1,-2 2,-1 2,1 15,2 16,2 0,-1 -1,-6 -2,-12 -6,-23 -7,-26 -4,-26 1,-1 3,-1 4,0 1,0 5,3 10,5 8,4 19,11 26,16 6,4 6,3 7,-11 1,-21 -2,-51 -7,-72 -4,-18 -7,-26 -15,-41 l -4,-9 3,-8 c 2,-7 2,-9 2,-22 0,-14 0,-15 -3,-25 -5,-14 -14,-31 -22,-40 -12,-15 -21,-24 -22,-24 -1,0 -20,18 -36,33 l -8,8 h -20 c -19,0 -19,0 -22,-2 -1,-1 -2,-3 -2,-3 0,-2 -9,-13 -14,-18 -9,-8 -28,-18 -34,-18 -7,0 -28,23 -36,39 -3,8 -9,24 -9,27 0,3 -3,13 -4,14 0,1 -5,2 -10,2 -10,1 -20,3 -28,5 -2,1 -8,3 -12,4 -4,1 -8,3 -8,3 -1,1 -2,1 -3,1 -1,0 -20,9 -26,13 -19,12 -35,28 -46,47 -5,7 -13,24 -13,27 0,0 -1,3 -1,4 -6,13 -11,57 -8,77 2,15 3,22 4,26 0,1 2,6 3,10 8,25 22,48 42,65 3,2 6,4 7,5 1,1 3,2 3,3 2,1 6,4 10,6 1,0 5,3 10,5 5,2 10,5 11,5 5,3 22,8 32,10 17,3 40,1 70,-7 28,-6 47,-6 64,1 14,5 18,6 24,8 15,4 20,4 33,-2 z m -18,-25 c -4,0 -11,-3 -15,-6 -7,-4 -8,-5 -10,-6 -1,0 -3,-1 -5,-2 -2,0 -7,-1 -13,-2 -10,-1 -30,0 -36,3 -2,0 -4,1 -6,1 -2,-1 -2,-1 2,-4 6,-4 13,-11 20,-19 4,-4 6,-6 9,-7 4,0 18,2 20,4 2,0 3,1 4,1 1,0 2,1 3,2 1,0 2,1 3,1 1,0 2,1 3,1 1,1 6,4 11,7 8,4 10,5 15,5 5,0 7,-1 13,-3 3,-2 7,-4 8,-4 1,0 2,-1 3,-1 2,-2 16,-2 22,0 2,1 5,2 7,3 13,6 21,8 34,8 8,0 12,0 12,1 0,2 -5,6 -11,10 -6,4 -14,7 -19,7 -3,0 -10,-3 -16,-6 -11,-7 -23,-6 -38,2 -9,4 -15,5 -20,4 z m -169,-5 c -18,-4 -27,-8 -41,-19 -8,-5 -18,-15 -23,-21 -8,-12 -9,-15 -13,-22 -4,-10 -7,-16 -8,-21 0,-3 -1,-6 -2,-7 0,-1 -2,-9 -3,-17 -1,-15 -1,-15 1,-31 3,-22 5,-30 14,-47 7,-16 17,-28 30,-38 9,-8 10,-8 20,-13 9,-4 18,-8 22,-8 1,0 4,-1 8,-1 3,-1 9,-2 13,-2 7,0 7,0 11,4 l 4,4 -6,6 c -4,3 -8,7 -11,9 -2,1 -5,4 -6,5 -2,2 -2,2 -1,5 2,2 3,3 4,3 2,0 3,0 3,1 0,0 3,2 5,3 5,3 6,6 4,7 -1,1 -2,2 -2,3 0,2 -3,8 -6,12 l -2,2 -3,-2 c -2,-1 -4,-1 -15,-1 h -13 c -3,2 1,3 12,3 9,0 12,0 14,1 1,1 2,2 3,2 6,0 10,10 5,10 -2,0 -3,-1 -4,-1 -3,-4 -23,-7 -25,-4 -1,1 -2,1 -3,1 -2,0 -6,3 -8,7 -2,4 -4,4 -6,0 -2,-2 -2,-2 -1,-5 2,-5 5,-8 8,-8 1,0 3,-1 3,-2 0,-2 -5,-1 -6,1 0,0 -1,1 -2,1 -2,0 -14,13 -16,18 -2,2 -3,4 -4,5 0,1 -1,2 -1,3 0,2 0,3 -1,3 -2,1 -4,13 -5,23 0,10 1,17 2,15 1,-1 1,-3 1,-4 0,-4 4,-9 6,-9 3,0 3,0 3,11 1,11 2,14 7,21 1,2 3,4 5,4 3,1 3,4 0,7 -2,2 -4,3 -4,1 -1,-1 -2,-1 -3,-1 -1,0 -2,-1 -2,-1 -1,-1 -1,-1 -1,0 0,5 15,17 24,19 2,1 5,-1 3,-2 -4,-1 -9,-9 -9,-15 -1,-5 1,-6 3,-2 0,1 1,3 2,4 2,3 9,6 12,6 3,0 11,-4 12,-6 1,-2 3,0 3,2 0,4 -5,10 -8,11 -1,0 -2,1 -2,2 0,0 -1,1 -2,1 -1,1 0,1 3,0 8,0 15,-3 22,-9 5,-4 9,-8 8,-10 -1,0 -1,0 -1,1 0,2 -1,2 -4,2 -5,0 -6,-1 -8,-4 -1,-2 -1,-2 1,-3 8,-2 11,-6 15,-15 2,-7 3,-18 1,-20 -4,-3 0,-7 4,-5 3,2 3,4 3,13 0,5 1,9 1,10 l 1,1 c 3,-19 3,-24 2,-35 -1,-5 -1,-7 0,-7 1,0 10,10 15,15 1,3 4,6 6,8 1,2 4,5 5,6 6,7 14,16 16,17 9,9 9,8 3,21 0,1 -1,4 -2,6 l -1,3 3,-1 c 5,-1 6,0 4,4 -1,2 -2,5 -2,7 -1,2 -2,3 -2,4 -1,0 -1,6 0,6 1,1 13,-14 16,-21 3,-5 4,-5 6,-2 2,3 2,3 -1,10 -10,22 -32,45 -51,53 -3,1 -6,3 -7,4 -2,0 -3,1 -4,1 -1,0 -3,1 -4,1 -11,5 -33,6 -47,3 z m 33,-9 c 7,-2 8,-3 6,-5 -1,-1 -2,-1 -10,1 -5,0 -13,2 -18,2 -10,1 -12,2 -10,3 3,2 26,1 32,-1 z m 3,-76 c 0,-1 0,-1 -1,-1 -1,0 -1,0 -1,1 v 1 c 1,0 1,0 2,-1 z m -77,-3 c 0,0 0,-1 -1,-1 -1,-1 -1,0 -1,0 0,1 0,2 1,2 1,0 1,0 1,-1 z m -4,-8 c -1,-1 -1,-1 -1,1 0,2 0,2 1,1 1,-1 1,-1 0,-2 z m 87,-2 c -1,-1 -1,0 -1,1 0,1 0,2 1,1 z m -89,-5 c 0,-4 -1,-7 -2,-6 -1,0 -1,5 0,7 0,3 2,1 2,-1 z m 300,71 c -5,-1 -10,-4 -13,-5 -14,-8 -26,-12 -34,-12 -4,0 -19,4 -22,5 -4,2 -9,4 -10,4 -1,0 1,-3 2,-6 2,-3 4,-6 5,-8 2,-3 9,-9 15,-11 14,-4 27,-2 47,8 l 8,4 c 1,1 11,5 18,7 6,1 8,1 13,0 3,-1 7,-1 10,-2 2,0 5,-1 5,-2 2,-1 6,-1 6,0 l -2,4 c -6,6 -12,11 -21,14 -7,2 -20,2 -27,0 z m -95,-13 c -1,-1 -4,-4 -6,-7 -2,-3 -6,-7 -8,-9 l -12,-15 -9,-9 c -2,-3 -5,-6 -6,-7 -1,-2 -3,-4 -4,-4 0,-1 -3,-5 -6,-8 -4,-4 -7,-8 -8,-9 -1,-1 -3,-3 -4,-5 -1,-1 -5,-5 -8,-9 -3,-3 -5,-6 -5,-7 0,-1 3,-4 5,-4 1,0 37,36 53,54 10,10 10,10 15,-1 10,-20 14,-27 14,-27 1,0 5,4 8,9 4,4 7,9 8,10 1,1 1,2 0,3 -1,1 -1,3 -2,4 -1,1 -1,3 -2,4 -2,3 -2,5 -10,21 -8,14 -10,18 -11,18 z m 12,-31 c 4,-7 7,-14 7,-15 0,-1 -1,-3 -2,-4 l -3,-2 -2,4 c -1,3 -3,9 -5,14 -3,4 -5,10 -5,11 -1,2 -1,2 0,4 1,1 3,2 3,2 0,0 4,-6 7,-14 z m -158,-8 c 0,-1 0,-2 1,-1 v 2 c -1,1 -1,0 -1,-1 z m -17,-12 c -7,-1 -9,-1 -12,-4 -7,-7 -10,-15 -10,-24 0,-9 2,-16 7,-22 8,-9 17,-10 26,-5 11,7 17,23 12,36 -2,7 -5,12 -9,15 -4,3 -11,5 -14,4 z m 7,-13 c 8,-3 11,-16 7,-25 -2,-5 -4,-7 -9,-9 -4,-1 -9,1 -13,6 -2,3 -2,4 -2,11 0,6 0,8 2,11 3,6 9,8 15,6 z m 193,11 c -3,-2 -10,-9 -10,-11 0,0 2,-1 4,-1 l 5,1 v -11 -12 c 0,0 2,-1 5,-1 l 4,1 v -4 c 0,-2 -1,-7 -2,-10 l -1,-7 6,-6 c 4,-4 8,-9 9,-11 1,-3 3,-5 4,-6 1,0 11,3 15,6 3,2 7,3 7,1 0,-3 -3,-24 -5,-28 -2,-9 -5,-18 -6,-20 -1,-1 -1,-3 -2,-4 -3,-6 -6,-13 -7,-13 0,0 -2,-2 -3,-5 -3,-4 -11,-12 -15,-16 -2,-1 -5,-2 -8,-2 -2,0 -4,0 -4,-1 -1,0 3,-8 8,-18 14,-29 15,-30 17,-26 0,1 1,4 3,6 2,5 3,8 1,11 0,1 -1,3 -2,5 -3,8 -6,14 -7,15 -2,4 -1,6 7,16 l 4,4 c 0,1 1,3 3,5 3,5 9,15 10,17 0,1 1,3 1,5 3,5 9,21 9,22 0,1 1,3 1,6 3,10 5,16 5,18 0,2 1,6 1,10 3,10 2,11 -5,6 -8,-4 -17,-8 -22,-9 -4,0 -4,0 -10,7 l -6,8 c 0,1 1,3 1,6 1,2 2,6 3,9 0,3 1,7 2,9 1,4 0,5 -5,4 -8,-1 -8,-1 -8,12 0,12 0,13 -1,13 -2,0 -4,-1 -6,-1 z m -43,-25 c -2,0 1,-4 5,-5 5,-2 12,-9 14,-13 4,-5 6,-12 7,-19 0,-3 0,-6 1,-6 2,0 7,11 8,16 2,13 -2,21 -16,25 -5,2 -17,3 -19,2 z m -17,-5 c -3,-2 -6,-4 -7,-4 -3,0 -4,-5 -4,-13 l 1,-7 4,-3 c 3,-2 6,-2 11,-2 7,0 8,0 13,3 l 6,4 v 7 7 l -8,6 c -4,3 -8,6 -9,6 -1,0 -4,-2 -7,-4 z m 9,-16 c 10,-2 10,-2 7,-5 -3,-2 -4,-2 -11,-2 -4,0 -9,0 -9,1 -2,0 -2,3 0,6 1,2 2,2 4,2 1,-1 5,-2 9,-2 z m -183,14 c -2,-2 -4,-5 -5,-6 0,-1 -1,-3 -1,-3 -2,-3 -2,-10 0,-11 0,-2 1,-3 1,-4 0,-2 3,-5 7,-8 3,-1 4,-1 8,0 2,1 6,2 7,4 3,2 3,2 1,4 -2,1 -2,1 -5,-1 -5,-4 -9,-2 -12,6 -2,5 -2,5 -1,11 1,3 3,7 4,8 2,4 0,4 -4,0 z m 70,-3 c 0,-1 0,-1 1,-1 1,0 1,0 1,1 -1,1 -1,1 -2,1 z m 3,-3 c -1,0 0,-2 0,-4 1,-5 0,-11 -3,-15 -3,-3 -10,-4 -13,0 -4,3 -9,0 -6,-3 1,-3 7,-6 10,-6 6,-1 10,0 14,6 5,6 5,12 2,19 -2,4 -3,5 -4,3 z m 31,-12 c -4,-3 -9,-8 -11,-10 -3,-2 -5,-5 -5,-6 -1,-1 0,-4 0,-7 2,-5 1,-7 -5,-10 -2,-2 -5,-3 -6,-4 -2,-2 -4,-3 -4,-3 0,0 3,-5 8,-13 2,-3 3,-6 3,-6 0,-1 -1,-2 -3,-2 -7,-3 -7,-4 2,-12 11,-10 12,-11 11,-13 -1,0 -2,-1 -2,-1 -1,0 -3,-1 -4,-2 l -3,-2 6,-5 c 5,-4 14,-11 16,-14 1,0 3,-2 6,-4 2,-2 4,-4 4,-5 0,-1 -2,-5 -4,-8 -4,-5 -5,-6 -3,-8 0,-1 1,-2 1,-3 0,-1 1,-2 2,-3 0,-1 1,-2 1,-3 0,-1 1,-2 2,-3 0,-1 1,-2 1,-3 0,-1 1,-2 1,-3 1,-1 2,-2 2,-4 1,-2 2,-4 3,-5 2,-1 2,-1 5,2 3,3 3,3 2,11 0,4 -1,10 -1,13 -1,6 -1,7 6,14 l 4,5 -6,1 c -5,1 -7,2 -13,8 -13,11 -16,14 -16,16 0,0 2,2 4,3 1,0 3,2 3,2 0,1 -4,5 -9,10 -5,4 -9,8 -9,8 0,1 3,2 5,4 2,1 4,2 5,2 0,1 -2,4 -6,11 -4,6 -5,9 -4,10 3,2 7,4 8,4 1,0 2,1 3,2 2,2 2,2 0,9 -3,8 -3,8 7,18 3,4 6,8 6,9 0,2 -4,6 -6,6 0,0 -4,-3 -7,-6 z m 98,-58 c 0,-1 1,-2 2,-3 1,0 4,-2 6,-3 7,-5 8,-5 9,-4 1,2 1,6 0,7 -1,1 -15,5 -16,5 -1,0 -1,-1 -1,-2 z m -49,0 c -6,0 -8,-2 -2,-2 2,0 4,-1 5,-1 2,-2 2,-2 -2,-3 -4,-1 -4,-1 -2,-3 2,-2 2,-2 -3,-4 l -3,-1 2,-1 c 2,-1 5,-1 7,-1 2,1 3,2 5,6 2,6 2,10 1,10 -1,1 -4,0 -8,0 z m 109,-44 c -1,-3 -1,-8 0,-11 2,-3 3,-7 5,-19 1,-8 -1,-19 -5,-26 -3,-4 -11,-11 -12,-11 -2,0 -16,15 -18,18 -6,12 -8,17 -9,25 0,8 -1,11 -2,11 0,0 -1,-1 -1,-2 -1,-2 -4,-7 -5,-8 0,0 -1,-2 -2,-3 -3,-6 -7,-12 -8,-13 0,0 -3,1 -5,2 l -5,3 -3,-2 c -3,-4 -5,-4 -9,0 -4,3 -6,3 -9,0 l -4,-4 -3,-2 -10,10 c -11,12 -11,12 -13,-1 -2,-16 -8,-30 -15,-37 -5,-5 -7,-5 -13,1 -4,5 -6,8 -11,18 -2,5 -3,18 -1,32 0,7 0,8 -1,8 -5,0 -7,-23 -3,-32 0,-2 1,-4 1,-5 0,-3 4,-12 7,-18 2,-3 3,-5 3,-6 0,0 1,-2 3,-4 l 7,-7 c 2,-3 4,-4 5,-4 4,0 14,10 20,21 8,11 8,11 9,15 2,2 3,3 4,3 2,0 3,-1 4,-1 2,-4 4,-3 8,1 5,5 7,5 12,0 3,-4 5,-4 9,0 3,4 6,4 10,0 l 3,-3 4,3 c 1,2 3,3 4,3 2,0 6,-5 28,-29 4,-3 7,-6 8,-6 4,0 19,21 19,27 0,1 1,3 2,5 2,5 2,27 0,33 -1,2 -2,5 -3,8 -1,2 -2,5 -3,6 -1,2 -2,2 -2,1 z"
     id="path2"
     sodipodi:nodetypes="scscscscsccccscccccccccccccccsccsccscccscscccscsccccccccsccscccccscccccccccccscsccscscccssssccccccccccccccscsscccscscccscccscscssccssccsscsccscccsscccscscscccccsssccccccsscccccscccsccccccccsccccscccscccscccccsscccccscsssscsccsccsccscscccscccccccccsscccccssccssccccssscccscsccccccccsccscsscccscccccsccccccccccsccscccsccccccsccccccccccccscscccccccccsscccccscccsscccsccccsssccsccccscccsccccccccsssccsccccccccccccccsccccccccccccsccscscscccscccccccccccccccssccsccscccssssscssccscccsccccscccccccccccsccccscccscsccscsccscsccsccscssccccc" />
</svg>
